<svg xmlns="http://www.w3.org/2000/svg" viewBox="0 0 1021 1920" style="enable-background:new 0 0 1021 1920" xml:space="preserve"><linearGradient id="a" gradientUnits="userSpaceOnUse" x1="1127.562" y1="1344.883" x2="1127.562" y2="310.544" gradientTransform="matrix(1 0 0 -1 -258.083 2178.959)"><stop offset="0" style="stop-color:#ba539a"/><stop offset="1" style="stop-color:#2a2050"/></linearGradient><path d="M1021.6 795.9c-62.3-19.3-121.1 26.8-148.5 126.5-35.8 130.3 42.6 286-.6 411.9-19.1 55.6-58.1 91.6-88.1 136.9-78.7 118.8-89.5 314.6-24.7 448.9h261.9V795.9z" style="fill:url(#a)"/><linearGradient id="b" gradientUnits="userSpaceOnUse" x1="973.607" y1="2112.689" x2="228.436" y2="407.83" gradientTransform="matrix(1 0 0 -1 -258.083 2178.959)"><stop offset="0" style="stop-color:#941356"/><stop offset="1" style="stop-color:#291f50"/></linearGradient><path d="M944.7 375c-32.7 23.5-71.8 23-108.1 14.3s-71.6-25-108.2-31.1c-32.9-5.5-66.5-2.8-98.7 8.2-29 9.9-50.1 30.6-65.3 66.6-45.4 107.8 64.2 248.3 18.9 356.2-19.7 46.9-62.7 62.7-101.5 65.3s-230.2-24.2-268.9 208.1c-31.1 186.6 98.6 323.2 119.2 353.6 36.8 54.2 78 103.8 106 167.4 28 63.6 40.8 146.8 16 213-20.6 55-65.1 83.9-108 96.8-43.1 12.9-90.2 15.5-123.5-19.8-1.8-1.9-2.5-2.6-3.5-3.9-3.4-4.5-5.5-9.8-6.2-15.3l-7.4-60.3c-1.6-13.1-6.1-25.7-13.1-36.8C87.5 1590.9 26 1375.2 7 1155c-19.8-227.5 3.9-459.8 53.5-678.3 13.8-60.5 29.8-121.1 57.1-171.9 13.6-25.4 29.6-47.6 47-67.7 9.9-11.4 28.6-1.8 24.9 12.9-17.4 68.9-18.2 141.7 17.1 177.2 1.2 1.2 2.5 2.2 4 2.9 53.8 25.3 118.7-5.6 150-72.1 8.1-17.3 14.2-36.6 23.9-52.2 29.1-46.5 80-45.7 124.2-44.9 17.1.3 34.7-.1 50.5-9.6 22.9-13.9 38.8-47.9 38.8-82.8s-16-68.8-38.7-83.1c-14.3-9-30.4-10.5-46-11.2h-.5c-18.3-1-18.1-28.1.2-28.8 124.8-5 253.5 45.7 375.2 96.5 43.2 18 93.2 45.4 104.2 106.5 8.9 49.9-15 103-47.7 126.6z" style="fill:url(#b)"/></svg>