<svg version="1.1" id="Layer_1" xmlns="http://www.w3.org/2000/svg" x="0" y="0" viewBox="0 0 386.4 146.7" style="enable-background:new 0 0 386.4 146.7" xml:space="preserve"><style>.st0{fill:#1d3d0c}.st1{fill:#995336}.st2{opacity:.4;fill:#5f4323}.st5{opacity:.5;fill:#995336}.st6{fill:#628d00}.st8{fill:#4b7300}.st10{fill:#94c400}.st11{fill:#b37052}.st13{opacity:.5;fill:#f2cfab}.st14{fill:#f5bc81}.st15{fill:#bf692d}.st16{opacity:.6;fill:#f5bc81}</style><path class="st0" d="M255.3 28c-.2 0-.4 0-.7.1-.5.1-.9.2-1.4.4-2.5.9-4.7 2.4-7.1 3.4l.1.1c1.4.4 2.5 1.6 3.9 2.3 1.5.7 4.7.2 6.3-.1 2.7-.5 5.8-1.6 8-3.3-2.9-1.6-6-3.1-9.1-2.9z"/><path class="st1" d="M318.9 48.4c2.3-.9 4.8-1.4 6.7-3.1.7-.7 1-2.1-.4-2.4-2.9-.5-5.9 1.3-8.4 2.3-4.5 1.8-9.2 3.3-13.7 5.2-5 2.1-9.7 4.6-14.6 6.9-5.1 2.4-10.4 3.5-16 4.3-10 1.6-19.9 2.8-30.2 2.4-5.5-.2-10.9-.7-16.4-1.3-2.6-.3-5.3-.6-7.9-.7-1.1-.1-2.3-.1-3.4 0-1.1 0-1.7-.3-2-.8 1.8-2.2 3.7-4.4 5.7-6.5 5.9-6.4 13.3-15.1 22.3-17 8.5-1.8 18-.4 26.7 1.2.4.1.7.1 1.1.2-5.6-3.3-11.6-5.9-18-7.8-2.7.1-5.4.2-8.1.1-1.4-.1-2.9.3-4.2.4-4.8.5-1.2-1.9.9-3.2-2.7-.5-5.4-.9-8.2-1.2-5.4 3.8-10.6 7.8-15.9 11.7-5.5 4.1-10 9.4-15.5 13.6-6.3 4.9-13.7 7.1-21.6 8.3-2.8.4-5.6.8-8.5 1-2.8.4-5.7.7-8.5.9-2.3.2-4.7.6-7 .8-2.3.2-4.5.3-6.8.4-4.7.2-9.4.1-14.2.1-1.8 0-3.5-.1-5.3-.1-6.4.3-12.8.5-19.1.3h-2.1c-.6.1-1.3.1-1.9.2-18 1.8-36 1.9-54 1.1-13.1-.6-26.2-1.6-39.2-3.4-1.6 2.6-2.8 5.4-3 8.4-.1 3.1 1 5.7 2.8 7.9 11.2.2 22.5.7 33.7.9 11.7.2 23.4-.6 35.1-1 11.8-.5 23.6-.3 35.5 0 11.9.4 23.9.8 35.8.5 11.8-.3 23.5-1.4 35.3-2.4 20.1-1.7 40.3-2 60.4-4.4 9.2-1.1 18.2-2.9 27.4-3.8 11.3-1 22.8-.2 34.3.3 4.3.2 8.8-.1 13-.6 2-.2 2.5-2.4 2.7-4.1 0-.6-.4-1.2-.9-1.4-1.6-.6-3.3-.7-5-.6-3.8.2-7.6-.5-11.4-.6-2.8-.1-5.6-.3-8.3-.2-.6 0-3.4.5-5.3.5 4.4-3.5 10-6 14.9-8.4 3.3-1.8 6.9-3.5 10.7-4.9z"/><path class="st1" d="M15 62.9c-1.3-.2-2.6-.3-3.9-.5-1.6 2.6-2.8 5.4-3 8.4-.1 3.1 1 5.7 2.8 7.9.8 0 1.6 0 2.5.1-.2-.6-.3-1.2-.4-1.8-.5-2.1-1-4.2-1.3-6.3-.2-1.6.5-3.2 1.3-4.6.6-1.2 1.3-2.2 2-3.2zM53.4 78c-.2.5-.3 1-.5 1.5l10.9-.3c-.6-2.1-1.2-4.3-1.4-6.5-.1-1.6-.2-3.1.7-4.4.5-.7 1.1-1.3 1.6-2L52.8 66c.3.7.7 1.3 1.3 1.8.5.6 1.4 1.1 1.7 1.8.6 1.2-.2 2.6-.7 3.7-.5 1.6-1.1 3.1-1.7 4.7zM281.4 64.2c-.6-2 .6-3.4 1.7-4.8-3.1 1-6.2 1.6-9.5 2.1.3.3.6.7.8 1.1.3.7.1 1.7-.1 2.3-.4 1.1-1.2 2.4-1.7 3.7.5-.1 1-.1 1.5-.2 3.2-.3 6.4-.4 9.6-.5-.8-1.1-1.8-2.3-2.3-3.7z"/><path class="st1" d="M199.3 52.8c-6.3 4.9-13.7 7.1-21.6 8.3-2.8.4-5.6.8-8.5 1-2.8.4-5.7.7-8.5.9-2.3.2-4.7.6-7 .8-2.3.2-4.5.3-6.8.4-4.7.2-9.4.1-14.2.1-1.8 0-3.5-.1-5.3-.1-6.4.3-12.8.5-19.1.3h-2.1c-.6.1-1.3.1-1.9.2-18 1.8-36 1.9-54 1.1-13.1-.6-26.2-1.6-39.2-3.4-.7 1.1-1.3 2.2-1.8 3.3 3.7.5 7.5 1 11.3 1.3 13.6 1.1 27.2 1.1 40.8 1.8 3.8-.2 7.6-.2 11.5-.2 6.9 0 13.7.2 20.6 0l20.7-.6c13.8-.4 27.6-.8 41.4-1.9 7-.5 13.9-1.6 20.8-2.7 5.7-.9 12-.9 17.1-3.9 5.6-3.3 9.8-8.4 13.7-13.4.4-.6.9-1.1 1.3-1.6-3.1 2.9-6 5.8-9.2 8.3zM242.3 64c-5.5-.2-10.9-.7-16.4-1.3-2.6-.3-5.3-.6-7.9-.7-1.1-.1-2.3-.1-3.4 0-1 0-1.6-.3-1.9-.8-1.4.3-2.8.4-4.3.4-3.3 0-6.7-.6-10-.3s-6.3 1.7-9.5 2.6c-2.5.7-5.1 1-7.6 1.9 3.3.2 6.6-1 9.9-1.5 3.6-.6 7.3-.7 11-.8 3.8-.1 7.5.1 11.2.7 3.7.6 7.3 1.4 10.9 2 3.2.5 6.4.9 9.6.8 3-.2 6-.7 9-1 5.9-.6 11.9-1.1 17.7-1.9 4.8-.7 9.5-1.6 14.1-2.9-.8.1-1.5.3-2.3.4-9.9 1.7-19.8 2.8-30.1 2.4z"/><path class="st2" d="M238.9 28.6c-1.7-.3-3.4-.6-5.1-.8-1.9 1.4-3.5 3-4.2 5 2.1-.3 4.1-.7 6.1-1.2-.5-.7 1.7-2.1 3.2-3zM264.1 36.8c-2-.3-4-.6-6-.8-5.4-.6-11.4-1.9-16.8-1.3-11.3 1.3-18.9 9.9-24.8 16.7-2.3 2.7-4.3 6-7.8 7.8-1.2.6-2.6.9-4.1 1 2.7.5 5.4.8 8.1.7 1.8-2.2 3.6-4.2 5.6-6.3 5.9-6.4 13.3-15.1 22.3-17 8.5-1.8 18-.4 26.7 1.2.4.1.7.1 1.1.2-1.5-.7-2.9-1.5-4.3-2.2zM305 52.2c-6.9 2.9-12.8 6.9-19.6 10 3.3 0 6.2-.7 9.2-1.6 4.1-2.9 9-5.1 13.3-7.3 3.6-1.8 7.2-3.5 10.9-4.9 2.3-.9 4.8-1.4 6.7-3.1.5-.4.7-1.2.5-1.7-2.8 1-5.3 2.5-8 3.6-4.3 1.6-8.7 3.2-13 5zM229.3 33.8c-.1 0-.2.1-.2.1h-.1c-6.2.5-10.9 4.5-14.7 7.9-2.3 2-4.3 4.4-6.1 6.8-1.2 1-2.5 1.8-3.8 2.6-1.7 1-3.3 3.1-5.5 3.6-.4.1-2.1 1.5-.9 1.5 2.7-.1 4.7.7 7.2-.2 2.6-1 4.3-2.8 6.1-4.6 5.4-5.6 9.4-12.6 17.3-16.3.1-.1.5-.4.7-.7.1-.1.2-.1.3-.2.1-.2.3-.7-.3-.5zM262.6 64.1c-4.5 0-8.5 1.5-13.1 1.1-4.7-.4-9-.6-13.7-.6-4.3 0-8.5-.2-12.8-.2-4-.1-7.8 1.8-11.7 2-.2 0-1 .6-.6.6 2.7.4 5.6.2 8.2-.1 3.8-.4 8.5.4 12.4.5 10.8.2 20.4-2.2 30.9-3 .3.1.7-.3.4-.3z"/><g style="opacity:.4"><path d="M193.8 60.2c5.8.1 11.6 1.1 17.4 1.4-5.6-1.2-11.2-2.4-17.1-2.5-3.6-.1-7.3.8-10.7 1.4-2.8.5-6.2 2-9.4 2.4 6.9.2 12.9-2.7 19.8-2.7z" style="fill:#68361d"/></g><path class="st5" d="M196.5 60.2c1.9 0 3.8-.1 5.6 0 1.2.1 2.4.4 3.6.5 1.6.2 3.2.3 4.7.3h2.3c1.8-2.1 3.6-4.2 5.5-6.2 5.9-6.4 13.3-15.1 22.3-17 8.5-1.8 18-.4 26.7 1.2.4.1.7.1 1.1.2-5.6-3.3-11.6-5.9-18-7.8-2.7.1-5.4.2-8.1.1-1.4-.1-2.9.3-4.2.4-4.8.5-1.2-1.9.9-3.2-2.7-.5-5.4-.9-8.2-1.2-4.8 3.3-9.4 6.9-14.1 10.4.1 0 .1-.1.2-.1 2.3-.9 5.4-2.1 7.8-.9.1 0 .1.2.1.2-.4 1.3-1.1 2.5-1.9 3.6-3 4.1-7.1 7.3-10.5 11.2-1.7 1.9-3.4 3.9-5.6 5.3-2.2 1.3-4.8 1.8-7.4 2.2-2 .3-3.9.5-5.9.7 1.1.1 2.3.1 3.1.1z"/><path class="st5" d="M318.9 48.4c2.3-.9 4.8-1.4 6.7-3.1.7-.7 1-2.1-.4-2.4-2.9-.5-5.9 1.3-8.4 2.3-4.5 1.8-9.2 3.3-13.7 5.2-3.4 1.4-6.7 3-9.9 4.7.1.1.2.2 0 .3-5.4 4.2-11.9 6.7-18.5 8.3-7.3 1.8-14.8 2.8-22.3 3.6-7.9.7-15.9 1.2-23.8 2.2-10.1 1.2-20.2 2.6-30.4 3.4-12.8 1-25.7.9-38.5 1-13 .1-26 .2-39 .2-25.6.1-51.2 0-76.8.8-11.5.4-23.2 1.2-34.9.8.5 1.1 1.1 2.1 1.9 3 11.2.2 22.5.7 33.7.9 11.7.2 23.4-.6 35.1-1 11.8-.5 23.6-.3 35.5 0 11.9.4 23.9.8 35.8.5 11.8-.3 23.5-1.4 35.3-2.4 20.1-1.7 40.3-2 60.4-4.4 9.2-1.1 18.2-2.9 27.4-3.8 11.3-1 22.8-.2 34.3.3 4.3.2 8.8-.1 13-.6 2-.2 2.5-2.4 2.7-4.1 0-.6-.4-1.2-.9-1.4-1.6-.6-3.3-.7-5-.6-3.8.2-7.6-.5-11.4-.6-2.8-.1-5.6-.3-8.3-.2-.6 0-3.4.5-5.3.5 4.4-3.5 10-6 14.9-8.4 3.4-1.9 7-3.6 10.8-5z"/><g><path class="st6" d="M248.2 32.2c2.7-.4 5.3-.9 7.9-1.9 2.4-1.6 4.7-3.5 6.8-5.6-1.4-2.9-6.5-3.4-9.5-3 1.4-1.5 2.5-3.5 4.3-4.5.2-.1.8-.8.4-.9-5.3-1.9-10.8-.6-14.6 3.2.6-1.4 1-2.9 1.3-4.3.6-2.8.6-6.7-.1-9.5 0-.1-.1-.1-.1-.1-7.3.1-11.5 10.8-11.3 18-2.3-4.4-4.1-9.3-9.8-10.3.3 3.8 1.1 7.6 2.8 10.8 1.9 2.5 4.7 3.4 7.8 3 .2 0 .5-.2.7-.5 4.3 2 8.7 6.4 13.4 5.6z"/></g><path d="M253.7 35.1c-2.6-1.9-6.3-2.8-9.5-2.2 2-1.4 3.7-3.1 5.6-4.6.9-1.2 2-2.4 2.9-3.6-1.9-.3-5.9 0-6.6.1-2.8.1-5.9.5-8.5 1.8.7-2.2 0-4.4-1.2-6.3-2.8-3.4-5.8-6.6-9.5-8.9.3 1.3.6 4.7.6 5.4.3 3.2.6 7 2.9 9.5-3.2-.3-6.5.6-9.6 1.5-.9.2-1.9.5-2.6.8 2.7 3.4 6.3 5.6 10.4 6.7 2.3-.3 4.3-1.3 5.9-3.1 1.1 1.9 3.6 3.4 5.9 2.8-1.5 1.5-1.2 1.3-.1 3.1.9 1.5 2.8 3.2 4.4 4.1.5.3 1.1.5 1.7.7h2.9c.1 0 .1-.1.2-.1 3.4-.6 6.8-1 10-2.1-1.9-2.1-3.5-4.3-5.8-5.6z" style="fill:#b5ce34"/><path class="st0" d="M262 42.7c-.1-.1-.2-.2-.4-.3-.3-.2-.5-.4-.8-.5-1.6-.8-3.4-1.1-5-1.8v.1c.5.9.4 2 .8 2.9.4 1.1 2.1 2.3 3 3 1.5 1.1 3.5 2 5.4 2.3-.7-2.1-1.4-4.3-3-5.7z"/><g><path class="st6" d="M256.6 41.4c1.5 1.1 3 2.1 4.6 2.9 1.9.4 3.9.6 5.9.6.7-2.1-1.5-4.7-3.1-6 1.4-.1 2.8-.4 4.2-.1.1 0 .7 0 .6-.3-1.6-3.5-4.8-5.4-8.5-5.5.9-.4 1.8-.9 2.7-1.4 1.7-1 3.5-2.9 4.5-4.6v-.1c-3.5-3.5-10.6-.4-13.9 3.2 1-3.2 2.5-6.4.3-9.6-1.7 1.9-3.1 4.1-3.8 6.5-.3 2.1.6 3.8 2.3 5.2.1.1.4.1.6.1 1 2.9 1 7.2 3.6 9.1z"/><path class="st8" d="M259.6 44.7c-.3-2.1-1.7-4.4-3.5-5.6 1.6.3 3.2.3 4.9.5 1-.1 2.1-.2 3.1-.3-.7-1-2.8-2.8-3.2-3.1-1.4-1.3-3.1-2.6-4.9-3.2 1.4-.7 2.1-2.1 2.4-3.6.3-2.9.4-5.9-.2-8.8-.5.7-2 2.5-2.3 2.9-1.4 1.6-3.1 3.6-3.2 5.9-1.4-1.7-3.4-2.8-5.3-3.9-.5-.3-1.1-.7-1.6-.9-.3 2.9.3 5.7 1.7 8.1 1.2 1 2.7 1.5 4.3 1.4-.4 1.5.1 3.3 1.5 4.1-1.5 0-1.2 0-1.5 1.4-.3 1.2-.2 2.9.1 4 .1.4.3.8.5 1.1.4.5.9.9 1.4 1.4.1 0 .1 0 .2.1 1.9 1.4 3.7 2.8 5.8 3.8-.1-1.7.3-3.6-.2-5.3z"/></g><g><path d="M352.5 89.6c.3-2.7 2.6-4.6 3.2-7.2 1 1.4 3.5 7 4.7 3.9 1.1-2.9 3.1-6.2 2.3-9.4 2.1.9 4.3.4 6.5.7 2.4.4 1.8-.3 1.1-1.9-1.4-3.1-.9-7.2-3.2-9.8 3.8-1.1 6.2-3.9 8.8-6.8.2-.2 3.6-3 2.1-3-2 .1-3.9-.4-5.8-.8 1.1-1 1.9-2.2 2.5-3.6.3-.7 2.3-4.5 2-5-.3-.5-4.2-1.3-5-1.7-1.8-.9-3.6-2.2-5.6-2.3 1.3-1.9 2.1-4.1 3-6.2.7-1.7 2.4-3.8-.3-3.8-3.9 0-7.7-3-11.7-2.1 1.2-2.1 2-4.4 3.4-6.4 1.9-2.8-.4-1.2-1.9-.6-4.6 1.9-9.7-.4-13.7 3.3.8-1.7 1.5-3.5 2.5-5.1.6-1 1.4-1.9 2.3-2.6.6-.5-.2-1.5-.8-1.1-4 2.6-9.4 2.4-12.9 5.8-.6-3.5-3.5-5.6-4.5-8.7-.6-1.9-.8 2.3-.8 1.7-.2 1.9-.9 3.6-1.4 5.4-1.8-4.4-7.8-5.6-11.7-7-.6-.2-2.3-1.2-2.9-.8-.6.4.2 3.8.2 4.6 0 3.5-.3 6.9 1.5 10.1-1.2-.5-6-2-7.1-1.3-.7.4 2.8 7.2 3.4 8.1-5.5-1.6-11.2 2.3-16.3 3.9-.3.1-3.1.6-2.1 1.5 1.2 1 2.1 2.3 3.1 3.6 2.1 2.8 4.8 5.1 8.3 6-2.3 1.5-2.9 4.5-4.6 6.5-.2.2-2.7 2.1-1 2.3 2.1.2 4.1.9 6.2 1.1-1.4 1.2-2.3 2.7-3.4 4.1-1.3 1.5-2.2 2 .2 2.4 3.6.6 6.1 3.3 10.1 2.4-.4.9-2 8.4-.9 8 2.8-1 5.8-1.8 8.1-3.7.3 3.6 3.9 5.5 6 8 1.6 1.8 1.7.4 3.1-.9 1.4-1.3 3.1-2.2 4.4-3.6.4 3.7 3.7 5.1 4.9 8.3.6 1.5-.1 3.1 1.9 1.3 1.5-1.3 3-2.7 4.1-4.4.9 1.9 2.5 3.5 4.1 4.9.1-.1 3.5 3.5 3.6 1.9.3-2.4 0 .4 0 0z" style="fill:#38632f"/><path class="st8" d="M311.3 39.3c-.6 0 1-.4.7-.2.7-.6-1.9-2.5-2.3-2.6-1.9-.8-4-.4-5.7-1.1-1.5-.6.8 2.5.9 2.6 2 2.2 3.7 1.2 6.4 1.3.1 0-1.7-.1 0 0zM325.8 27.1c-.1-.1-.5-5.5-1.5-6.5-.9-.9-2.2-1.5-3.4-2.1-.2-.1-2-1.1-1.8-1.3-1.2.6-.1 7.5.7 8.4.9 1.1 2.1 1.7 3.4 2.1.7.2 1.3.4 2 .6.8.3 1.4-.8.6-1.2 0 0 .8.3 0 0z"/><path class="st8" d="M318.5 24.9c1.7 2.5 2.7 4.8 5.7 5.8 2.3.8 4.7 2.8 4.9-.3.5-7.3-7.2-8.8-12.9-8.1.8-.1 2 2.1 2.3 2.6 1.2 1.8-1-1.4 0 0zM356.9 40.4c1.8.7 4 1.1 5.8.2.5-.3 4.1-3.2 3.9-3.7-.2-.6-6.8-.2-7.6.3-.9.5-2.3 1.4-2.8 2.3-.5.6.1 1.1.7.9 1.5.6-.1 0 0 0zM359.2 36.2c.8 1 3.1-2.3 3.5-2.9.2-.3 2.4-4.2 1.2-3.3-1.8 1.3-3.9 1.8-5.2 3.8-.4.6-.8 4 .5 2.4.2.3-.1.1 0 0z"/><path class="st6" d="M349.8 65.1c-2-2.9-.7-7.1-3-9.8.9-.2 7.4-1.8 7.6-2.3.7-1.6-7.5-6-8.8-6.1 1.4-1.1 2.4-2.7 2.8-4.4.2-.8.8-4.9 0-5.5-1.1-.7-6.9 1.8-7.4 3.1-.5-1.2-7.4-7.8-8.1-6.2 0 .5.2 1.1.5 1.5.2 1.2-.3 2.3-.4 3.5-.2 2.4 1.2 4.6 3.1 6-1.9 0-3.6.8-5.1 2-.5.4-4.7 2.9-4.7 3 0 .1 4.4 1.7 4.9 2.1 1.7 1 3.8 1.9 5.7 1.1-.5 1.3-.7 2.8-1.2 4.1-.1.5-1.4 2.3-1.4 2.7.2.8 5.7-1.4 6.4-1.7.2 2.6 1.8 5.1 4.2 6.1.6 0 5.7 1.9 4.9.8-1.9-2.6.3.4 0 0z"/><path class="st6" d="M330.8 43.6c1.6-1.4-4.1-4.9-5.3-5.1-1-.2-8.9 2.4-8.7 3.1.1.3 5.1 2.5 5.8 2.8 2.6 1.5 5.9 1.1 8.2-.8.4-.4-1.6 1.3 0 0zM323.7 35.3c1.6.3.4-1.4.1-1.7-1.2-1.4-3-3-4.9-3.5-1.4-.4-2.9 0-4.3.4-.4.1-4 .8-4 .9 0-.2 5.9 3.8 6.4 4 1.6 1 5.5 1.9 6.7-.1 0 0-1 1.6 0 0zM367.4 48c1.2-.7-4.6-2.5-5.4-2.7-3.3-1-4.8 1.6-6.7 3.3-1.7 1.5 3.9 2.8 4.8 2.7 2.7-.4 5-2 7.3-3.3.2-.1-3.5 2 0 0zM356.7 42.8c1.9-.5-1.8-1.1-1.6-1.1-2.6-.6-3.7.1-5.3 2-1.2 1.5-1.9 3.1.9 2.8 2.4-.3 4.1-2.3 6-3.7 0 0-2.2 1.6 0 0zM345.4 34c.3-.7 2.5-5.7 2.1-6.1-.6-.5-4.6 2.2-5.2 2.7-1.4 1.3-2.5 4.1-1.3 6 1.2 2 3.9-1.6 4.4-2.6.8-1.8-.7 1.3 0 0zM337.8 34.1c1.3-1.1 2.1-2.9 2.2-4.6 0-.5.6-4.7.6-4.7-.3-.4-2.2.4-2.4.6-1.6 1-2.7 2.5-3.2 4.2-.4 1.2-.3 2.6.3 3.7.3.6 2.4 2.3 2.5.8 1.1-.9 0 .4 0 0zM331.3 31.3c1.8-1.3.3-3.9-.8-5.1-.6-.6-5.4-4.4-5.9-4.2-.8.3 1.3 13.2 6.7 9.3 0 0-1.8 1.3 0 0zM322.5 60.4c2.2-1.7 5.4-.6 7.9-2.4 1.7-1.3 4.7-3.5.9-4.2-2.7-.5-5.6.3-7.3 2.5-.6.8-1.3 1.9-1.6 2.9-.5.4-.9 1.9.1 1.2 1.7-1.3-.4.3 0 0z"/><path class="st10" d="M364.5 60.6c-2.7-1.6-4.3-4.8-7.2-6.4-2.4-1.8-5.8-2.6-8.7-2 1.9-1.3 3.6-3 5.4-4.4.4-.3 3.4-2.6 3.4-2.7-.2-.9-6.1-.4-7-.3-2.6.1-5.4.5-7.8 1.7 1-3.2-1.3-6.4-3.3-8.7-.8-.9-5.5-6.1-6.7-5.8.3-.1.7 4.6.8 5.4.2 2.9.5 6.5 2.6 8.7-3-.3-6 .6-8.9 1.3-2.1.5-4.8 1.1-1.7 2.8 2.4 1.3 3.7 3.7 6.5 4.1 3 .4 5.8-.6 7.9-2.9 1 1.8 3.3 3.1 5.4 2.6-1.4 1.4-1.1 1.2-.1 2.8.8 1.4 2.6 3 4 3.8 2.5 1.4 5.3 1.1 8 .7 1.9-.3 3.7-.5 5.6-.3.2.2 3.1.4 1.8-.4-.3-.1.4.2 0 0z"/><path class="st10" d="M338.4 65.6c.6-2.4 3.7-3.2 4.4-5.6.3-1 .1-5.6-1.8-5.5-2.8.2-4.9 2.2-4.9 5 0 1.5.5 3 1.1 4.4 0-.1.9 2.9 1.2 1.7.5-2-.1.3 0 0z"/><path class="st6" d="M329 46.8c-2 2.4-6.2.9-7.8 3.9-.6-1-7.6-5.8-8.5-4.9-.2.2.3 2.3.4 2.7.4 2.2 1.1 4.4 2.8 5.9-1.4.6-2.6 1.8-3.7 2.9-1.1 1.1-2.9 1.8-.8 2.6 2.4.9 5.8 3 8.3 1.4-.3 1.3 1.4 8.4 2 7.6 2-2.6 5.1-5.5 3.9-9.2 1.6.7 3.6.9 4.8 2.4.8 1.1-.1-4.4-.2-5-.2-1.1-.6-2.1-1.7-2.7.4-1.2.5-2.5.6-3.8 0-.3.8-4.8-.1-3.8-1.2 1.5.3-.3 0 0z"/><path class="st6" d="M320.7 37.1c-.2-1-1.3 3.3-1.4 3.4-1 2.3-1.5 4.6.7 6.5 2.1 1.7 3.1-2.1 3.2-3.7.1-2.6-2-3.8-2.5-6.2-.1-.5.4 1.9 0 0zM311 53c-1.5-2.1-4.3-1-5.8.5-.3.3-3.9 4-3.9 4 .2.7 5.9.1 6.6-.2.8-.4 3.7-3.3 3.1-4.3-.9-1.1.1.3 0 0z"/><path class="st10" d="M323.8 48c-.6-2-2.4-3.3-4-4.4-.1-.1-4-3-3.4-1.1.8 2.5.5 5.4.9 8.1.4 2.6 1.5 5.3 4.6 5.2 1.2 0 2.6-1.4 2.8-2.6.3-1.8-.4-3.6-.9-5.2-.8-2.9.5 1.6 0 0zM321.3 56.6c-2.7.2-4.6.9-6.2 3.3-.4.6-4.1 6.2-3.6 6.6.9.8 6.7-2.1 7.6-2.6 1-.7 5.1-7.6 2.2-7.3-.4 0 .5 0 0 0zM332.5 59.4c-1.7-1.4-2.6-3.7-4.9-4.3-.7-.2-3.9.4-3.7 1.2.6 2.1 2.9 3.3 4.9 3.6.6.1 4.1-.2 3.7-.5-1.3-1 .3.3 0 0zM312.4 47.1c-.9-1.3-2.3-2-3.5-3 .4.4-2.2-1.8-1.4-.3.6 1.2.5 3.3 1 4.7.7 1.8 2 3.8 4.2 3.5.3.4 1.1.7 1.5.2.8-1-1.1-4.2-1.8-5.1-1.1-1.5 1 1.3 0 0z"/></g><path class="st2" d="M33.1 73c-8.3-1.1-16.5-2.4-24.9-3.2 0 .2 0 .4-.1.7 8.3.8 16.5 2.1 24.8 2.8.1-.1.3-.3.2-.3zM85.5 77.6c-2.8-.6-5.7-.5-8.5-.6-3.1-.1-6.2-.4-9.3-.6-3.1-.2-6.3.2-9.4.3-3 .1-6 .2-9.1.1-3.1-.1-6.1 0-9.2.1-3.1.2-6.2-.2-9.4-.4-6.3-.4-12.8.3-19.1-.9-.1 0-.2.2-.1.2 5.8 1.4 12 .9 17.9 1.4 3.1.3 6.2.7 9.3.7 3.1 0 6.1-.3 9.1-.1 6.2.2 12.3-.2 18.4-.4 3.1-.1 6.4 0 9.5.4 3.2.4 6.4-.3 9.6.2.2-.1.4-.4.3-.4zM148.6 75.2c-5.8-.8-11.7-1.3-17.6-2-6.1-.7-12.3-.2-18.3-.4-3.2-.1-6.4.1-9.6 0-3.5-.1-7-.6-10.5-.8-6.7-.6-13.4-1.2-20.1-1.7-6.4-.4-12.9-.9-19.3-1.1-3.2-.1-6.3-.2-9.3-.2-3.3 0-6.5-.3-9.8-.4-8.4-.3-16.8-.9-25.1-1.7-.1.4-.3.8-.4 1.2 9 .8 18 1.2 27 1.8 6.4.5 12.8.4 19.2.7 6.5.3 13 .7 19.4 1.1 6.7.5 13.5 1.1 20.2 1.6 3.2.3 6.5.6 9.7.7 3.4.1 6.8-.2 10.3 0 2.5.2 5.1-.1 7.6-.1 3.1 0 6.3 0 9.4.4 5.7.6 11.3.9 17 1.5.2-.2.4-.6.2-.6zM204.2 74.1c-5 .1-10 .9-14.9.9-5.1-.1-10.1.7-15.2 1.1-2.8.2-5.6 1.2-8.4 1.3-2.6.1-5.2.3-7.8.3-4.8 0-10.2.6-14.9-.7-.1 0-.2.1-.1.2 4.5 1.5 9.8 1.2 14.5 1.4 5 .1 9.7-.2 14.7-1.2 2.4-.4 5.1-.5 7.5-.7 3.1-.3 6.1-.7 9.2-.8 5.1-.1 10.2-1 15.3-1.5 0-.2.1-.4.1-.3z"/><path class="st2" d="M214.8 67.8c-2-.6-4.1-.8-6.1-1.1-2.8-.4-5.6-.8-8.4-.9-2.4-.1-4.9-.1-7.3-.2-2.2-.1-4.7.5-6.8.8-5 .7-10 0-15 1.2-2.5.6-5.2.6-7.8 1.1-.9.2-1.7.4-2.6.7-1 .4-2.1.4-2.9.9-.2.1-.5.4-.4.6.3.7 1.3.7 1.9 1 1.7.7 3.4 1.1 5.2 1.5 3.8.8 7.9.9 11.9.7-3 .5-6 .9-9.1.8-5.7-.2-11.7-.8-17.2-2.2l-3.3-.9c-2.3-.7 1.7-1.9 2.5-2 2.7-.4 5.4-1.4 8.1-1.4 2.5-.1 5.1-.5 7.5-.8 2.8-.3 5.5-.6 8.3-1.2 2.9-.7 5.7-1.3 8.7-1.4 2.5-.1 5-.1 7.4-.4 2.7-.4 5.3-.8 8-.6 1.3.1 2.7.2 4 .4 1 .1 1.7.3 2.8 0 .1 0 .2-.3.1-.2-1.2.4-2.2 0-3.4-.1-1.3-.2-2.6-.3-3.9-.4-2.4-.3-4.9.1-7.3.5-2.9.5-5.9.1-8.8.3-2.9.2-5.8.9-8.6 1.4-5.9 1.2-12.3.6-18.1 2.3-2.6.8-8.2.3-9.1 3.8 0 .1 0 .2.1.2 6 2 12.4 2.7 18.6 3.5 6.6.8 12.8-.1 19.3-1.6 6.3-1.4 12.9-1.8 19.4-2.5 2.6-.3 5.6.2 8-.8 1.2-.5 3.7-1.1 4.4-2.3 0-.3.1-.6-.1-.7zm-6.9 2.3c-2.5 0-4.9.3-7.4.5-5.5.5-10.9 1.2-16.4 2-.4.1-.8.1-1.2.2 1.2-.4 2.5-.8 3.6-1.2 1.1-.4 3.7-.5 3.8-2.1v-.1c-1.6-.8-3.5-.6-5.2-.9-2.2-.3-4.4-.1-6.6-.4-4.1-.4-8.2.2-11.9 1.9-.1.1-.5.5-.3.6 2.4.8 4.7 1.3 7.3 1.3 2 0 3.7.3 5.6-.6.2-.1.7-.6.4-.8-.9-.7-2.1-.6-3.2-.6-.3 0-.8.9-.5.9.8 0 1.6 0 2.3.3-1.6.4-3.3.2-4.9.2-2.1 0-4-.4-6-1 1.8-.7 3.5-1.1 5.5-1.3 2.4-.3 4.7.1 7.1.1 2.3 0 4.5.3 6.8.4.4 0 .8 0 1.2.1 0 0 1.5.5 1.3.5-.6.2-1.3.3-1.9.5-5.1 2-10 2.8-15.5 2.7-2.6-.1-5.1-.3-7.7-.9-1.1-.2-2.3-.6-3.4-.9-.3-.1-1.6-.5-2.3-.9.5-.1 1-.1 1.5-.4 1.1-.6 2.5-.8 3.7-1 2.3-.4 4.8-.5 7.1-1 2.5-.6 5.1-.9 7.7-.9 2.2 0 4.5.2 6.6-.2 2.4-.4 5-.9 7.4-.9l7.2.3c2.6.1 5.1.4 7.6.8 2.1.3 4.3.5 6.3 1.1-.4.1-.9.3-1.2.4-1.2.9-2.7 1.3-4.4 1.3zM147.3 66.6c-2 .5-4.3.4-6.4.7-2.7.4-5.4.4-8.1.8-5.9.9-11.9 2.3-17.8 1.5-2.8-.4-5.7-.2-8.5-.3-3.1-.1-6.1-.1-9.2-.2-6.1 0-12.2 0-18.4-.6-.1 0-.2.2-.1.2 6 .7 12 .9 18 1.1 3 .1 6 .2 9 .4s6.1.2 9.1.6c5.6.8 11.1-.9 16.5-1.7 2.8-.4 5.6-.8 8.4-1 1.5-.2 3-.7 4.6-.7 1 0 1.8-.2 2.7-.6.2.1.4-.2.2-.2zM47.7 67.7c-2-.3-4-.7-6-1-2-.3-4.2-1-6.2-.9-4 .1-8-.3-11.9-.3-4.5 0-9-.7-13.5-1.5l-.3.6c2 .3 4 .9 6 1.2 2.4.3 4.8.6 7.2.6 3.8.1 7.6.4 11.3.3 4.4-.1 8.8 1.1 13.2 1.3.2 0 .3-.3.2-.3zM279.8 67.5c-7.6-.2-15.1.1-22.7 1.2-1.7.3-3.5.5-5.2.7-1.9.3-3.8 1-5.7 1.2-3.9.5-7.7 1.8-11.6 2l-.1.1c3.2 0 6.3-.9 9.4-1.3 3.8-.4 7.5-1.3 11.4-1.8 3.9-.5 7.8-.9 11.7-1.5 4.2-.6 8.4-.6 12.6-.6.1.2.3 0 .2 0zM302.1 65.7c-4.5-.3-9-.7-13.5-.7-4 0-7.9.7-11.9.6-.1 0-.3.2-.2.3 3.9.4 7.6.1 11.5.1 2.3 0 4.7-.5 6.9-.1 2.2.3 4.7.3 6.9.3.2-.1.4-.5.3-.5z"/><g><path class="st11" d="M316.6 99.9c.2-.3.3-.6.4-.9v-7.9c-.9.1-3.3-1-4.2-1-9.5.4-17.5 1.2-27 1.1-5.9-.1-11.8-.1-17.7 0-5.9.2-11.7.4-17.6.5-14.5.1-29.1-1.8-43.6-.9-3.6.2-7.2.3-10.9.3-12 .9-24.1 1-36.2.6-14.7-.5-29.4-1.4-44.1-1.1-7.4.1-14.7.4-22.1.3-7.3-.1-14.6-.6-22-.5-6.8 0-13.4.4-20.2-.1-3.1-.2-6.2-.5-9.4-.5-.2 4.6-.1 9.1.8 13.6.4 1.8 1 3.7.9 5.6-.1 1.8-.7 3.4-1.7 4.9 2 .5 4.1.3 6.1.5.2 0 .3.2.2.4-1 .8-2.1 1.3-3.2 1.8-.7.3-1.5.6-2.2.9-.7.3-.4.9-.3 1.5.3 3 .4 5.9.5 8.9.1 1.4.2 2.9.3 4.3 0 .8 0 1.5-.3 2.2-.6 1.4-1.4 2.9-1.8 4.4 9 2.4 18.7 1.1 27.9 1.2 5.6.1 11.1.2 16.7.1s11.3-.3 16.9-.5c9.4-.4 18.8-.7 28.2-.2 8.9.5 17.7 1.4 26.6 1.7 9.1.3 18.1-.1 27.1-.7 9.2-.5 18.3-.8 27.5-1.1 34.9-.8 70-.5 104.5-6.5v-6.7c-1.3-.8-2.5-1.5-3.8-2.2-.1-.1-.1-.2-.1-.3.6-.9 1.2-1.7 2-2.5.4-.4.9-.8 1.3-1.2.3-.2 0-.6-.1-.9-.5-1.5-.9-3.1-1.1-4.7-.4-2.2-1.1-5.7.5-7.7-1.1-.6-2-1.3-3.3-1.6-.2 0-.2-.3-.1-.4 1.9-1.4 3.6-2.8 4.6-4.7z"/><path class="st11" d="M316.6 99.9c.2-.3.3-.6.4-.9v-7.9c-.9.1-3.3-1-4.2-1-9.5.4-17.5 1.2-27 1.1-5.9-.1-11.8-.1-17.7 0-5.9.2-11.7.4-17.6.5-14.5.1-29.1-1.8-43.6-.9-3.6.2-7.2.3-10.9.3-12 .9-24.1 1-36.2.6-14.7-.5-29.4-1.4-44.1-1.1-7.4.1-14.7.4-22.1.3-7.3-.1-14.6-.6-22-.5-6.8 0-13.4.4-20.2-.1-3.1-.2-6.2-.5-9.4-.5-.2 4.6-.1 9.1.8 13.6.4 1.8 1 3.7.9 5.6-.1 1.8-.7 3.4-1.7 4.9 2 .5 4.1.3 6.1.5.2 0 .3.2.2.4-1 .8-2.1 1.3-3.2 1.8-.7.3-1.5.6-2.2.9-.7.3-.4.9-.3 1.5.3 3 .4 5.9.5 8.9.1 1.4.2 2.9.3 4.3 0 .8 0 1.5-.3 2.2-.6 1.4-1.4 2.9-1.8 4.4 9 2.4 18.7 1.1 27.9 1.2 5.6.1 11.1.2 16.7.1s11.3-.3 16.9-.5c9.4-.4 18.8-.7 28.2-.2 8.9.5 17.7 1.4 26.6 1.7 9.1.3 18.1-.1 27.1-.7 9.2-.5 18.3-.8 27.5-1.1 34.9-.8 70-.5 104.5-6.5v-6.7c-1.3-.8-4-2.4-3.9-2.5.6-.9 1.2-1.7 2-2.5.4-.4.9-.8 1.3-1.2.3-.2 0-.6-.1-.9-.5-1.5-.9-3.1-1.1-4.7-.4-2.2-1.1-5.7.5-7.7-1.1-.6-3.5-1.9-3.4-2 1.9-1.4 3.6-2.8 4.6-4.7z"/><path class="st11" d="M315 99.1c-.8 0-1.6.1-2.4.1-.6 0-1.3-.2-1.9-.1-1.5.2-2.2 1.8-3 2.8-.7.9-1.5 1.8-2.3 2.5.6.1 1.2.3 1.8.6 1.1.5 2.1.9 3.4 1 1.5.1 3 .3 4.5.3-1.2-.7-2.9-1.6-2.8-1.7 1.6-1.4 3.3-2.8 4.3-4.7.2-.3.3-.6.4-.9v-.1c-.7.1-1.4.2-2 .2zM316.4 119.9c.1 0 .1-.1.1-.1h-.2c-1.2-.2-2.3-.5-3.4-.7-1.4-.3-3.2-.4-4.1 1-.8 1.3-1.5 2.8-2.4 4.2.8.2 1.6.5 2.2 1 .6.5.9.9 1.8.7.4-.1.9-.2 1.3-.3 1-.2 2.1.1 3.1.1.6 0 1.2.1 1.8.1-1.3-.8-3.6-2.2-3.5-2.3.6-.9 1.2-1.7 2-2.5.4-.4.9-.8 1.3-1.2zM314.4 130.2h-2.6c1.7.2 3.5.3 5.3.4v-.7c-.3.1-.5.1-.7.2-.7.1-1.4.1-2 .1zM311.9 109.9c.9.2 1.9.3 2.9.4v-.9c-1 .1-2 .2-2.9.5zM317 94.4v-2.2c-2.9.6-5.9 1.1-8.8 1.8 3 .2 5.9.3 8.8.4zM317 97.3v-.7c-1.9.1-3.8.1-5.8.3 1.7 1.1 3.8.5 5.8.4zM312.3 131.8c-2.3-.1-4.7-.1-7.1-.1-4.1 0-8.2.2-12.2-.1 0 .2-.1.3-.3.2-.1-.1-.3-.2-.4-.3-.4 0-.8-.1-1.2-.1-.3 0-.2-.5.1-.4h.4l-.2-.2c-2.1 0-4.2.1-6.3.3-7 .5-13.9 1.3-20.9 2-7 .7-14 .9-21.1.6-6.6-.2-13.2-.8-19.8-.8-3.1 0-7.4.4-10.1-1.5-.6 0-1.2.1-1.8.1-29.2 1.5-58.5 1.1-87.7.2-26.7-.9-53.3-2.7-80-3 .1 1.2.2 2.4.2 3.6 0 .8 0 1.5-.3 2.2-.6 1.4-1.4 2.9-1.8 4.4 9 2.4 18.7 1.1 27.9 1.2 5.6.1 11.1.2 16.7.1s11.3-.3 16.9-.5c9.4-.4 18.8-.7 28.2-.2 8.9.5 17.7 1.4 26.6 1.7 9.1.3 18.1-.1 27.1-.7 9.2-.5 18.3-.8 27.5-1.1 34.9-.8 70-.5 104.5-6.5v-.1c-.2-.1-.5-.1-.8-.2-1.4-.4-2.8-.7-4.1-.8zM310.5 116.8c1.8.4 3.6.7 5.5.8-.1-.3-.2-.6-.2-.8-1.8-.2-3.6-.2-5.3 0zM308.9 112.5c0 .6 0 1.2-.1 1.7 2.1-.3 4.1-.9 6.2-1.2 0-.1 0-.2-.1-.3h-.9c-1.7 0-3.4-.1-5.1-.2zM313.1 127.7c-1.2.1-2.6-.1-3.8.2 2.5.4 5.1.7 7.7.7v-1.1c-1.3 0-2.6.1-3.9.2z"/><path d="M312.2 99.2c.2-.3.3-.6.4-.9v-7.9c-10.4.6-20.8.3-31.1.1-5.9-.1-11.8-.1-17.7 0-5.9.2-11.7.4-17.6.5-14.5.1-29.1-1.8-43.6-.9-3.6.2-7.2.3-10.9.3-12 .9-24.1 1-36.2.6-14.7-.5-29.4-1.4-44.1-1.1-7.4.1-14.7.4-22.1.3-7.3-.1-14.6-.6-22-.5-6.8 0-13.4.4-20.2-.1-3-.3-6.1-.6-9.2-.6-.2 4.6-.1 9.1.8 13.6.4 1.8 1 3.7.9 5.6-.1 1.8-.7 3.4-1.7 4.9 2 .5 4.1.3 6.1.5.2 0 .3.2.2.4-1 .8-2.1 1.3-3.2 1.8-.7.3-1.5.6-2.2.9-.7.3-.4.9-.3 1.5.3 3 .4 5.9.5 8.9.1 1.4.2 2.9.3 4.3 0 .8 0 1.5-.3 2.2-.6 1.4-1.4 2.9-1.8 4.4 9 2.4 18.7 1.1 27.9 1.2 5.6.1 11.1.2 16.7.1s11.3-.3 16.9-.5c9.4-.4 18.8-.7 28.2-.2 8.9.5 17.7 1.4 26.6 1.7 9.1.3 18.1-.1 27.1-.7 9.2-.5 18.3-.8 27.5-1.1 34.9-.8 70-.5 104.5-6.5v-6.7c-1.3-.8-4-2.4-3.9-2.5.6-.9 1.2-1.7 1.9-2.5.4-.4 1.4-1.8 1.3-2.1-.5-1.5-.9-3.1-1.1-4.7-.4-2.2-1.1-5.7.4-7.7-1.1-.6-3.5-1.9-3.4-2 1.6-1.2 3.4-2.7 4.4-4.6z" style="fill:#f2cfab"/><path class="st11" d="M159.6 140.7c-2.1 0-4.2 0-6.1-.1-5.3-.2-10.7-.6-15.9-1-3.5-.3-7.2-.5-10.8-.7-3.2-.2-6.6-.3-10.3-.3-6.1 0-12.4.2-17.9.5H98c-5.3.2-10.8.4-16.3.5h-3.4c-2.7 0-5.5 0-8.2-.1-1.7 0-3.4-.1-5.1-.1-2.5 0-5 .1-7.5.1-2.2.1-4.5.1-6.7.1-5.6 0-9.9-.5-13.7-1.5l-.2-.1h.1c.3-1 .7-2 1.2-2.9.2-.5.5-1.1.7-1.6.2-.6.3-1.2.3-2.1 0-.8-.1-1.6-.1-2.4 0-.6-.1-1.3-.1-1.9 0-.6-.1-1.1-.1-1.7-.1-2.4-.2-4.8-.5-7.2 0-.1 0-.3-.1-.4-.1-.5-.2-1.1.5-1.4.5-.2.9-.4 1.4-.6.3-.1.5-.2.8-.3 1.3-.5 2.3-1.1 3.1-1.8-.8-.1-1.7-.1-2.5-.2-1.2 0-2.4-.1-3.6-.4l-.3-.1.2-.3c1.1-1.6 1.6-3.2 1.7-4.8.1-1.5-.3-3-.6-4.5-.1-.4-.2-.7-.2-1-1.1-4.9-1-9.6-.8-13.7v-.2h.2c2.5 0 5.1.2 7.6.4.6 0 1.2.1 1.8.1 2.4.2 4.9.2 8 .2 2.1 0 4.3 0 6.4-.1 1.9 0 3.8-.1 5.7-.1h.6c4 0 8 .1 11.9.3 3.1.1 6.3.2 9.4.3h3.6c4.5 0 9-.1 13.5-.2 1.7 0 3.3-.1 5-.1 1.8 0 3.7-.1 5.6-.1 9 0 18.1.4 27 .7 3.8.2 7.7.3 11.6.4 4.8.2 9.3.2 13.6.2 8 0 15.4-.3 22.5-.8 3.9 0 7.5-.1 10.9-.3 2.6-.2 5.3-.2 8.3-.2 5.7 0 11.5.3 17.1.6 6 .3 12.1.6 18.2.6 4.1 0 8.3-.2 12.4-.3 1.7-.1 3.5-.1 5.2-.2 2.9-.1 6-.1 9.3-.1 2.6 0 5.3 0 8.4.1 1.5 0 3 .1 4.5.1 4.3.1 8.8.2 13.2.2 5 0 9.4-.1 13.4-.3h.2v8.2c-.1.4-.3.6-.4.9-.9 1.8-2.5 3.1-4 4.4l-.2.2c.4.3 1.7 1 2.5 1.4.3.1.5.3.7.4l.2.1-.2.2c-1.4 1.8-.8 5-.5 7.2l.1.4c.3 1.6.6 3.2 1.1 4.7.2.5-1 2-1.3 2.3-.7.6-1.3 1.4-1.8 2.3.4.3 2.2 1.4 3.7 2.4l.1.1v7h-.2c-29.1 5.1-59.1 5.7-88.1 6.2-5.4.1-10.9.2-16.4.3-10.6.3-19.4.6-27.5 1.1-7 .6-14.2 1-21.3 1zm-43.1-2.5c3.7 0 7.1.1 10.3.3 3.6.2 7.2.5 10.8.7 5.2.4 10.6.8 15.9 1 2 .1 4 .1 6.1.1 7.1 0 14.3-.4 21-.8 8.1-.5 16.9-.8 27.5-1.1 5.5-.1 11-.2 16.4-.3 28.9-.5 58.9-1.1 87.9-6.2v-6.4c-3.8-2.3-3.9-2.5-3.9-2.6v-.2c.6-1 1.3-1.8 2-2.5.5-.4 1.2-1.6 1.2-1.9-.5-1.5-.9-3.1-1.1-4.7l-.1-.4c-.4-2.1-.9-5.3.4-7.3-.1-.1-.3-.2-.5-.3-2.6-1.5-2.8-1.6-2.8-1.8v-.1l.1-.1.4-.4c1.5-1.3 3-2.6 3.9-4.3.1-.2.2-.5.4-.8v-7.7c-4 .2-8.3.3-13.2.3-4.4 0-8.9-.1-13.2-.2-1.5 0-3-.1-4.5-.1-3.1 0-5.9-.1-8.4-.1-3.3 0-6.4 0-9.3.1-1.7 0-3.5.1-5.2.2-4.1.1-8.3.3-12.4.3-6.1 0-12.2-.3-18.2-.6-5.6-.3-11.4-.6-17.1-.6-3 0-5.7.1-8.3.2-3.4.2-7 .3-10.9.3-7.1.6-14.5.8-22.5.8-4.4 0-8.8-.1-13.7-.2-3.9-.1-7.8-.3-11.6-.4-8.8-.4-18-.7-27-.7-1.9 0-3.8 0-5.6.1-1.7 0-3.3.1-5 .1-4.4.1-9 .2-13.5.2h-3.6c-3.1 0-6.3-.2-9.4-.3-3.9-.1-8-.3-11.9-.3h-.6c-1.9 0-3.9 0-5.7.1-2.1 0-4.3.1-6.4.1-3.1 0-5.7-.1-8.1-.2-.6 0-1.2-.1-1.8-.1-2.4-.2-4.9-.4-7.4-.4-.2 4-.2 8.6.8 13.4.1.3.2.7.2 1 .3 1.5.7 3.1.7 4.6-.1 1.6-.6 3.2-1.6 4.8 1.1.2 2.2.2 3.3.3.8 0 1.7.1 2.6.2.2 0 .4.2.4.3 0 .2 0 .3-.1.4-.9.7-1.9 1.3-3.3 1.9-.3.1-.5.2-.8.3-.5.2-.9.4-1.4.6-.3.2-.3.4-.2.9 0 .1.1.3.1.4.3 2.4.4 4.9.5 7.3 0 .6 0 1.1.1 1.7 0 .6.1 1.2.1 1.9.1.8.1 1.6.1 2.4 0 .9-.1 1.6-.3 2.3-.2.5-.4 1-.7 1.6-.4.9-.8 1.7-1.1 2.6 3.7 1 7.9 1.4 13.4 1.4 2.2 0 4.5-.1 6.7-.1 2.5-.1 5.1-.2 7.5-.1 1.7 0 3.4 0 5.1.1 2.7 0 5.4.1 8.2.1h3.4c5.4-.1 10.9-.3 16.3-.5h.6c5.6-.4 11.9-.6 18-.6z"/><path class="st13" d="M308.7 122.9c.6-.9 1.2-1.7 1.9-2.5.4-.4 1.4-1.8 1.3-2.1-.5-1.4-.8-2.8-1.1-4.3-.1 0-.1 0-.2.1-3 .8-6 1.6-9.1 2.3-5.9 1.4-11.8 2.6-17.7 3.7-11.7 2.2-23.5 3.8-35.4 5-18.3 1.9-36.7 2.4-55.1 3.1-18.7.7-37.4 1.4-56.1 1.1-18.4-.2-36.6-2-54.8-4.9-9.1-1.4-18.1-3.2-27.3-4.2-4-.4-8.2-.9-12.1-2.2-1.2-.4-2.4-1-3.5-1.6-.2.1-.4.2-.7.3-.7.3-.4.9-.3 1.5.3 3 .4 5.9.5 8.9.1 1.4.2 2.9.3 4.3 0 .8 0 1.5-.3 2.2-.6 1.4-1.4 2.9-1.8 4.4 9 2.4 18.7 1.1 27.9 1.2 5.6.1 11.1.2 16.7.1s11.3-.3 16.9-.5c9.4-.4 18.8-.7 28.2-.2 8.9.5 17.7 1.4 26.6 1.7 9.1.3 18.1-.1 27.1-.7 9.2-.5 18.3-.8 27.5-1.1 34.9-.8 70-.5 104.5-6.5v-6.7c-1.3-.6-4-2.3-3.9-2.4z"/><g><path class="st13" d="M259.1 134.4c-3.5 0-6.9-.2-10.4-.5-3.5-.2-6.9-.1-10.3 0-3.5.1-7-.4-10.6-.5-3.6-.1-7.2-.1-10.8-.2-7.2-.1-14.3-1.1-21.5-1.9-7.3-.7-14.5-1.4-21.8-1.6-14.3-.3-28.7.1-43 1-7.3.5-14.6 1-21.9 1.4-3.5.2-7 .4-10.6.4-3.5 0-7 0-10.4.2-7.4.4-14.9 1.5-22.3 1.1-1.8-.1-3.6-.2-5.4-.2-1.8 0-3.6 0-5.4-.2-1.9-.2-3.7-.4-5.5-.6-1.6-.2-3.7-.3-5.1-1.1 0 0-.1 0 0 .1 1.1.7 2.5.9 3.8 1.1 1.8.3 3.7.6 5.5.8 1.7.2 3.3.3 5 .4 1.8 0 3.6-.1 5.4.1 6.9.7 14.1-.3 21-.8 7.1-.5 14.3-.2 21.4-.6 7-.4 14.1-.8 21.1-1.3 14.6-1 29.1-1.5 43.7-1.3 7.3.1 14.6.7 21.8 1.4 3.6.4 7.2.7 10.8 1 3.6.3 7.1.8 10.7.9 3.8.1 7.6 0 11.3.1 3.9 0 7.7.4 11.6.4 3.6.1 7.1-.3 10.7 0 3.6.3 7.4.5 11.2.4 0 .1 0 0 0 0z"/><path class="st13" d="M199 135.2c-1.1-.5-2.3-.6-3.5-.7-1.5-.2-2.9-.3-4.4-.5-3.1-.3-6.2-.7-9.4-.7-3.1-.1-6.1-.6-9.1-.7-3.2-.1-6.5-.5-9.7-.5-6.3 0-12.5.6-18.8.7-2.8 0-5.5.5-8.2.7-1.3.1-2.6.4-3.9.4-.6 0-1.3.1-1.7.6 0 0-.1.2-.1.3.6.4 1.3.4 2 .4 1 0 1.9.2 2.9.2 2.3.1 4.6.8 6.9.9 4.9.2 9.7.8 14.6.9 2.1 0 4.3.2 6.4.2 2.2 0 4.3-.1 6.5-.3 2.2-.2 4.5-.2 6.7-.4 2.3-.2 4.6-.6 6.9-.6.1 0 .4-.3.2-.4-2.4-.7-5-.7-7.5-.6-1.2.1-2.4.1-3.6-.1-1.3-.2-2.5-.4-3.8-.4-2.5 0-4.9-.4-7.4-.2-.6 0-1 .2-1.6.2-.6 0-1.2-.2-1.8-.2-1.3 0-2.6 0-3.9.1l-.1.1c1.1 0 2.3 0 3.4.1 1.1 0 2.1.4 3.1.2 2.7-.5 5.3.1 8 .1 1.1 0 2.3.2 3.4.3 1.4.2 2.6.2 4 .2 2-.1 4.2-.1 6.2.3-1.4.1-2.8.3-4.3.5-2.3.2-4.5.3-6.8.4-2.3.2-4.5.3-6.8.4-2.3 0-4.6-.1-6.9-.2-4.7-.1-9.4-.6-14.2-.8-2.2-.1-4.3-.5-6.5-.8-1-.1-2.1-.2-3.1-.3-.9-.1-2 .1-2.8-.4.6-.3 2-.1 2.6-.2 1.2 0 2.5-.3 3.6-.5 2.8-.5 5.6-.6 8.4-.6 3 0 5.9-.4 8.9-.4 3.1-.1 6.2-.2 9.3-.2 5.9-.1 11.8.8 17.7 1 3 .1 5.9.4 8.9.7 1.5.2 3.1.3 4.6.5 1.3.2 2.7.3 3.9.8-.6.4-1.4.2-2 .3-1.2.2-2.5.4-3.7.4-2.7.2-5.3.5-8 .8-2.7.3-5.5.5-8.2.7-2.8.2-5.7.3-8.5.4-2.6.1-5.1 0-7.6-.1-2.7-.1-5.4.1-8.1 0-2.7-.1-5.4-.3-8.1-.4l-3.9-.3c-1-.1-2.2 0-3.1-.4l-.1.1c.7.4 1.7.3 2.5.4 1.3.2 2.7.3 4.1.4l8.4.6c2.8.2 5.7-.1 8.5.1 1.3.1 2.7.2 4 .2 1.5 0 3-.1 4.5-.2 5.6-.2 11.2-.6 16.8-1.2 2.8-.3 5.5-.5 8.3-.8 1-.1 2-.3 3-.4.6-.1 1.2-.3 1.6-.8.4-.1.5-.3.4-.3zM118.4 135.8c-6.8-.1-13.6.2-20.4.3-3.4 0-6.8.1-10.1 0-1.7 0-3.4-.1-5.1-.2-1.6-.1-3.3-.5-5-.5h-2.2c-.7 0-1.4-.2-2.1-.2-1.6-.1-3.2 0-4.7 0-1.6 0-3.2 0-4.8.1-1.6.1-3.2.3-4.7.3-1.6 0-3.1.2-4.7.2-1.5 0-3-.1-4.5 0-1.6.1-3.2.1-4.7.3-.8.1-1.6.2-2.3.3-.8.1-1.8.5-2.6.1 0 0-.1 0 0 .1 1 .5 2.3 0 3.3-.1 1.6-.2 3.1-.2 4.7-.3 1.8-.1 3.5-.1 5.2-.1 1.6.1 3.1-.2 4.7-.2 3.2 0 6.3-.3 9.5-.3h4.8c1.6 0 3.1.2 4.6.2 1.6 0 3.3.3 4.9.5 1.7.1 3.4.2 5.1.2 3.4.1 6.8 0 10.1 0 6.9-.1 13.9-.6 21-.7 0 .1 0 0 0 0zM306.2 132.2c-3.6.4-7.2.7-10.8.8-3.2.1-6.4-.1-9.6.2-3.5.3-6.9.8-10.4 1-3.6.2-7.3.3-10.9.7-3.6.3-7.1.9-10.7 1.2-1.9.2-3.7.1-5.6.2-1.8.1-3.7.2-5.5.2-7.2-.3-14.3-.2-21.5-.1-2.6 0-5.1-.4-7.7-.4h-4c-1.3 0-2.6.4-3.8 0 0 0-.1.1 0 .1 1.4.5 3.1 0 4.6 0 1.8 0 3.7 0 5.5.1 1.6.1 3.3.3 4.9.4 1.7.2 3.6 0 5.4 0h11c3.5 0 7 .3 10.5.1 3.5-.2 6.9-.3 10.4-.7 3.7-.4 7.4-.9 11.2-1.1 3.5-.2 6.9-.4 10.4-.8 3.5-.5 7-.8 10.6-.9 2.6-.1 5.2 0 7.8-.2 2.6-.1 5.4-.4 8.2-.8 0 .1 0 0 0 0zM307.7 123.4c-3.4 1-7.1.7-10.6.9-3.6.2-7.2.9-10.8.9-7.2 0-14.4.5-21.5.7-3.4.1-6.8.1-10.2.3-3.6.2-7.2.3-10.8.4-3.6.1-7.1.3-10.7.3h-10.7c-4.3 0-8.5-.3-12.7-.5-2.1-.1-4.3-.1-6.5-.3-2.1-.2-4.3-.5-6.4-.6-8.4-.3-16.9.6-25.3-.2l-.1.1c7 .8 14.1.3 21.1.3 3.5 0 6.9.4 10.4.8s7.1.4 10.7.6c14.1.8 28.3.2 42.4-.5 4.2-.2 8.5-.3 12.7-.3 4.5 0 9-.5 13.4-.6 2 0 4.1.1 6.1-.1 2.2-.2 4.3-.5 6.5-.7 2.2-.2 4.3-.3 6.5-.5s4.5-.3 6.5-1c0 0 .1-.1 0 0zM309.7 125.8c-2.7 0-5.4.4-8.2.6-3 .2-5.9.2-8.9.2-5.6.1-11.3.1-16.9.5-3.1.3-6.1.5-9.2.5-3 0-6 .3-9.1.5-3.1.2-6.1.7-9.1 1-1.6.1-3.1.2-4.7.5-1 .2-2 0-2.9.5-.1 0-.3.2-.2.3.2.3.5.4.9.4l1.5.3c1.3.3 2.7.3 4.1.3 3 .1 6.1.1 9.1 0 6-.1 12-.4 18.1-.6 6-.2 12.1-.5 18.1-.7 3-.1 5.9-.1 8.9-.2 2.6-.1 5.3.7 7.8-.1.1 0 .2-.2.1-.2-2.6.7-5.5-.1-8.2 0-2.8.1-5.6.1-8.5.2-5.9.1-11.8.4-17.7.6-5.9.2-11.7.5-17.6.6-2.9.1-5.8.1-8.6 0-1.4 0-2.8-.1-4.3-.2-.6 0-1.2-.2-1.8-.3-.5-.1-1 0-1.4-.4.9-.3 1.9-.2 2.9-.4 1.5-.3 3.1-.3 4.7-.4 3-.3 6.1-.7 9.1-.9 3.1-.2 6.2-.4 9.4-.4 2.8 0 5.6-.3 8.5-.5 5.7-.5 11.5-.4 17.3-.6 2.7-.1 5.4-.1 8.2-.3 2.8-.1 5.7-.7 8.6-.8 0 .1.1 0 0 0zM302.9 107.3c-1.9.4-3.7.7-5.7.8-1.9.1-3.9.4-5.8.4-3.8 0-7.6.5-11.3 1.1-4.1.7-8.2 1.6-12.4 2.2-4.2.6-8.4 1.1-12.6 1.6-8.5.9-17 .8-25.6.9-8.4.1-16.8.4-25.3.7-8.6.3-17.2.7-25.8 1.1-8.4.4-16.9.7-25.3 1.2-17.1 1-34.1 2.5-51.1 3.9-10.1.9-20.2 1.7-30.3 2.6-5.1.4-10.1.8-15.2 1.6-2.5.4-5.1.8-7.7.9-1.3.1-2.5.1-3.8 0-.7 0-1.3-.1-1.9-.2-.2 0-1.4-.1-.6-.1l.1-.1h-.4l-.1.1c3.7.9 7.7.5 11.4 0 4.2-.6 8.3-1.2 12.5-1.5 8.5-.7 16.9-1.4 25.4-2.1 16.9-1.4 33.9-2.9 50.9-4.1 17.3-1.2 34.7-1.9 52-2.6 8.5-.3 17-.6 25.5-.8 8.4-.2 16.7-.1 25.1-.4 10-.4 20-1.8 29.8-3.6 4.8-.9 9.6-1.7 14.4-2 2.2-.2 4.5 0 6.7-.4 2.4-.3 4.7-.5 7.1-1.1-.1.1.1-.1 0-.1zM306.4 100.7c-3.6 1.1-7.5 1.7-11.3 2.2-4 .6-8.1.8-12.2 1.1-4.3.3-8.5.7-12.8 1-4.3.2-8.5.4-12.8.7-8.4.4-16.8 1.2-25.3 1.8-8.6.7-17.2.4-25.8.6-8.5.2-17 .8-25.5.8s-17-.9-25.5-1.4c-8.4-.4-16.9-.6-25.3-1.4-8.2-.8-16.4-1.6-24.6-2.2-4.9-.4-9.8-1-14.7-1.5-5.2-.4-10.3-.6-15.5-.8-5-.2-10.1-.4-15.1-1-2.4-.3-4.9-.3-7.4-.6-1.1-.1-2.2-.4-3.4-.3-1.3.1-2.6.4-3.9.4l-.1.1c1.8 0 3.6-.6 5.4-.4 2.1.3 4.2.6 6.4.8 4.2.3 8.3.7 12.5 1 8.3.4 16.6.5 24.8 1.4 16.5 1.7 33 3.6 49.6 4.4 4.2.2 8.4.4 12.7.6 4.2.2 8.4.7 12.7.9 8.5.6 17.1.4 25.7.1 4.2-.1 8.4-.4 12.6-.5 4.2-.1 8.5-.1 12.7-.2 8.4-.1 16.7-1 25-1.6 10.6-.8 21.2-1.2 31.8-1.9 2.4-.2 4.9-.5 7.3-.7 2.6-.2 5.2-.4 7.9-.7 2.4-.3 4.7-.7 7.1-1.1 2.2-.3 4.6-.7 7-1.6 0 .1 0 0 0 0zM154.1 110.6l-4.5-.6c-3.5-.4-7.1-.5-10.6-.8-3.6-.3-7.1-.9-10.7-1.1-7-.5-13.9-1.2-20.9-1.9-7.1-.7-14.1-1-21.2-1-7.3 0-14.5-1.1-21.7-1.7-3.6-.3-7.3-.6-11-.7-3.6-.1-7.1.2-10.7.2h-3.3l-.1.1c3.3.1 6.6-.1 10-.1 3.6-.1 7.3.2 10.9.5 3.7.3 7.3.7 10.9 1 3.6.3 7.2.9 10.9 1 3.6.1 7.1 0 10.7.1 3.5.1 7.1.3 10.6.6 7 .6 13.9 1.6 20.9 2 3.5.2 7 .5 10.5.9 3.6.4 7.2.5 10.8.9 1.7.1 3.4.4 5 .5.8.1 1.5.2 2.3.3.6.2 1.3.1 1.9.4 1 .6-.9 1.3-1.3 1.4-.9.3-1.8.5-2.7.7-4.3 1-8.9 1.8-13.4 1.9-3.6.1-7.2 0-10.8 0-3.5 0-7 .2-10.5.5-6.7.5-13.4.8-20.1 1.3-6.6.5-13.1 1-19.7 1.9l-9.9 1.2c-3.2.4-6.4.8-9.5.8-3 0-6 .6-9.1.9-3.1.3-6.2.9-9.3 1 0 0-.1.1 0 .1 2.9-.2 5.9-.6 8.8-.9 1.6-.1 3.2-.1 4.8-.3 1.9-.2 3.8-.4 5.8-.4 1.3 0 2.8-.2 4.1-.4 1.8-.2 3.7-.4 5.5-.6 3.6-.4 7.2-.8 10.7-1.3 7.1-1 14.3-1.5 21.5-1.9 3.7-.2 7.3-.3 11-.6 3.8-.3 7.6-.7 11.4-.8 7-.3 14 .3 20.9-.6 3.5-.5 7.1-1 10.4-2.1.6-.2 1.9-.6 2-1.4 0-.7-.8-.9-1.3-1z"/><path class="st13" d="M90.8 111.7c-2.6-1.3-5.6-1.6-8.5-1.9-3.6-.5-7.1-.7-10.7-1.1-4.9-.5-9.7-1.1-14.6-1.5-2.4-.2-4.8-.2-7.2-.2-2.1 0-4.6.1-6.5-.7 1 .5 2.4.7 3.5.8 1.8.1 3.6.1 5.4.1 3.6.1 7.2.5 10.7.8 7.1.8 14.3 1.4 21.4 2.3 1.6.2 3.1.4 4.6.9.6.2 1.2.5 1.8.7.2.1.5.2.7.4.7.5-.2 1.1-.7 1.2-2.8.7-5.7.8-8.6 1.3-3.4.6-6.8.8-10.3.6-3.3-.2-6.5-.3-9.7.3-3.4.7-6.9 1-10.4 1.3-1.7.1-3.4.3-5.1.5-1.8.2-3.5-.4-5.3.1 0 0-.1.1 0 .1 1.6-.4 3.2.1 4.8 0 1.8-.1 3.7-.4 5.5-.5 3.5-.2 6.9-.5 10.3-1.2 3.5-.7 7-.4 10.5-.3 3.2.2 6.4-.2 9.5-.7 2.9-.5 5.7-.7 8.6-1.3.6-.1 1.1-.4 1.4-.8.3-.5-.6-.9-1.1-1.2z"/><path class="st13" d="M59.7 110.8c-.3-.4-.6-.5-1.1-.7-.8-.2-1.6-.3-2.4-.5-1.7-.3-3.4-.2-5-.1-1.9.1-3.6 0-5.5-.1-.8 0-1.5-.1-2.3-.2-.5-.1-1-.3-1.6-.2 0 0-.1.1 0 .1.5-.1 1 .2 1.5.2.6.1 1.2.2 1.9.2 1.3.1 2.6.3 3.8.3 2.8-.1 5.5-.4 8.3.3.6.1 1.3.2 1.8.5 1 .5-.4 1.3-.8 1.4-1.3.5-2.6.7-3.9.9-1.3.2-2.6.2-3.9.6-1.3.4-2.7.7-4 1 0 0-.1.1 0 .1 1.6-.2 3.2-.6 4.7-1 1.6-.4 3.3-.4 5-.7.5.1 4.4-.8 3.5-2.1zM112.5 109.7c-1.5-.7-2.8-1.2-4.5-1.5-2-.3-4-.3-6-.5-3.4-.3-6.9-.9-10.3-1.4 2.6.5 5.1.8 7.7 1.2 1.5.2 3 .5 4.6.6 1.7.1 3.5.3 5.2.6 1.3.3 2.5 1 3.7 1.5 1.3.6-.3 1.9-1 2.3-.7.3-1.5.5-2.3.6-2.9.6-5.7 1.3-8.5 2.2l-.1.1c1.7-.5 3.5-1 5.2-1.4 1.6-.4 3.2-.6 4.8-1.1.8-.2 1.9-.8 2.4-1.5.8-.9.1-1.3-.9-1.7zM207.7 94.7c-3.6.5-7.3.4-10.9.3-3.5 0-7-.4-10.5-.4-3.5.1-7 .4-10.5.5-3.5.1-7 .4-10.6.6-14.8 1.1-29.7 1.4-44.6 1.4-13.4 0-26.8-.2-40.2-.2-3.3 0-6.5.2-9.8.2h-9.7c-3.2 0-6.5 0-9.7-.5-1.7-.3-3.3-.4-5-.6-1.4-.1-2.8 0-4.2-.5 0 0-.1 0 0 .1 1.3.5 2.7.5 4.1.6 1.8.2 3.6.4 5.4.7 3.4.6 7.1.6 10.5.5 3.5-.1 7 .1 10.5 0 3.6-.1 7.2-.2 10.8-.2 7.2 0 14.4.2 21.6.2H127c13.6-.1 27.1-.5 40.7-1.5 3.5-.3 6.9-.4 10.4-.5 3.3-.1 6.7-.5 10-.5 3.2 0 6.5.3 9.7.2 3.3 0 6.6-.1 9.8-.5.1.2.2.1.1.1zM142.5 92.8c-.8.2-1.7.2-2.6.2-.8 0-1.5.2-2.3.2-1.8 0-3.6-.1-5.4-.2-3.4-.1-6.8-.1-10.2.1-3.6.2-7.2.6-10.8.9-3.7.3-7.3.4-10.9.4-3.5 0-7-.1-10.4-.2-3.5-.1-6.9-.5-10.4-.5-3.4 0-6.8-.3-10.2-.2-1.3 0-2.6.4-3.9.5-.7.1-1.4.2-2.2.3-.9.2-1.8.1-2.6.2-1.7.2-3.5.3-5.3.3-.9 0-1.8-.2-2.7-.2-.9 0-1.9 0-2.8-.1-.9-.1-1.9-.4-2.8-.6-1-.2-1.9-.2-2.9-.3-1-.1-1.8-.3-2.7-.5-.9-.2-1.9 0-2.9 0l-.1.1c.8 0 1.6 0 2.3.1.8.1 1.5.4 2.3.5 1.8.2 3.5.3 5.3.7 1.6.4 3.2.3 4.8.3.8 0 1.6.2 2.4.1.9 0 1.8-.1 2.7-.2 1.4-.1 2.8-.1 4.2-.3l2.1-.3c.8-.1 1.6-.1 2.4-.3 3.3-.7 6.9 0 10.3 0H82c1.8 0 3.7.4 5.5.4 3.5.1 7 .2 10.5.2 3.4 0 6.7.1 10.1-.2 3.6-.3 7.2-.7 10.8-1 4.1-.4 8.2-.5 12.3-.4 2 0 3.9.1 5.9.1.8 0 1.6-.1 2.4-.2 1.1.3 2 .4 3 .1 0 0 .1 0 0 0zM272.7 93.7c-2.7.5-5.4-.1-8-.4-2.6-.3-5.3-.3-7.9-.3-2.6 0-5.1 0-7.7-.1-2.5 0-4.9-.3-7.4-.2-5 .2-9.9.6-14.9.8-1.2 0-2.4 0-3.6-.1-1.4-.1-2.9 0-4.3-.1-1.4 0-2.8-.2-4.1-.2-1.2 0-2.4.2-3.6.4 0 0-.1.1 0 .1 1.3-.1 2.6-.3 3.9-.3 1.4 0 2.7.3 4.1.3 1.3.1 2.6 0 3.8.1 1.3.1 2.7.2 4 .1 5.1-.2 10.2-.6 15.3-.8 2.3-.1 4.7.2 7 .2h7.8c2.6 0 5.3 0 8 .3 2.4.2 5 .8 7.6.2 0 0 0-.1 0 0zM311.5 93c-1.5.6-3.2.5-4.8.6-1.8.1-3.5.3-5.3.4-3.6.3-7.2 1.1-10.9 1.2-6.9.2-13.7 1.5-20.6 1.4-3.5 0-7-.2-10.5-.4-3.7-.3-7.3-.1-11-.1-7 0-14.1-.5-21.1.1-3.6.3-7.2.7-10.8.9-1.7.1-3.3.3-5 .4-1.8.1-3.6-.1-5.4 0-3.4.1-6.8.2-10.2.5-3.5.2-7 .3-10.5.7-3.5.4-7.1.6-10.6.8-3.8.2-7.5.5-11.2.7-3.5.2-7.1.3-10.6.3-1.3 0-2.7.1-4 .3-.6.1-1.6.3-2 .9-.7 1.1 1.5 1.7 2.2 1.9 3 .7 6.1.4 9.1.7 3.6.3 7.2.3 10.8.4 3.6.1 7.1.1 10.7.1 7 0 14 .6 21 .4 7-.2 14.1-.8 21-1.4 3.7-.3 7.5-.6 11.2-.9 3.6-.2 7.2-.1 10.7-.1 7-.2 14.1-.7 21.1-.9 7.1-.1 14.1-.3 21.1-1.2 3.6-.5 7.1-1.3 10.7-1.4 3.5-.1 6.9-.9 10.4-.9.9 0 1.8-.2 2.7-.2.1 0 .2-.2.1-.2-3.3.1-6.5.5-9.8.7-1.7.1-3.4.3-5.2.3-1.7 0-3.5.5-5.2.8-3.4.5-6.7 1-10.1 1.3-3.8.3-7.6.4-11.4.4-7.1.1-14.1.5-21.2.8-3.6.2-7.2.2-10.7.2-3.5 0-7 .3-10.4.6-7.3.6-14.6 1.3-21.9 1.7-3.4.2-6.9.3-10.4.1-3.5-.2-7.1-.3-10.6-.4-3.5-.1-7.1 0-10.6-.1l-10.8-.3c-1.7 0-3.4-.2-5.2-.3-1.8-.1-3.5.1-5.3-.1-.9-.1-1.8-.3-2.6-.6-.4-.2-.8-.4-1.1-.6-.9-.8 1-1.2 1.5-1.3 3.4-.6 6.9-.2 10.3-.4 3.4-.1 6.9-.3 10.3-.5 3.7-.2 7.4-.5 11.1-.8 3.4-.2 6.7-.7 10.1-.9 3.6-.2 7.3-.3 10.9-.4 1.7-.1 3.3-.2 5-.2 1.8 0 3.6.1 5.4 0 7-.3 14-1.5 21-1.5 3.3 0 6.5.2 9.8.2h10.6c6.6 0 13.2.8 19.8.5 3.1-.2 6.2-.5 9.3-.8 1.6-.1 3.3-.4 4.9-.5 1.6-.1 3.3-.1 4.9-.2 3.4-.3 6.7-1 10.1-1.4 1.6-.2 3.2-.2 4.9-.4 1.6-.3 3-.3 4.3-.9z"/><path class="st13" d="M309.7 95.4c-3.4 0-6.7 1.1-10 1.5-1.6.2-3.3.5-5 .7-1.9.2-3.9.1-5.8.2-3.3.1-6.5.3-9.8.4-3.6.1-7.3 0-10.9.1-7.2.3-14.2 1.6-21.4 1.6-6.7 0-13.3-1-19.9-.6-4.1.3-8.2.2-12.3.5-4.1.3-8.2.5-12.3.8-1 .1-1.9.2-2.9.2h-3.1c-1.9 0-3.8-.1-5.7-.2-1 0-1.9.1-2.9 0-.9-.1-1.8 0-2.7.1-1.1.1-2.2.1-3.3.2-1.2.1-2.5.3-3.7.4l-.1.1c3.4 0 6.7-.8 10.1-.5 1.5.1 3.1 0 4.6.1 1.6.1 3.1 0 4.7.2 1.4.1 2.8-.1 4.2-.2 1.6-.1 3.2-.3 4.9-.4 1.6-.1 3.2-.1 4.8-.2 1.9-.2 3.8-.3 5.8-.4 3.4-.1 6.8-.2 10.2-.4 3.4-.2 6.8.1 10.3.3 6.8.5 13.6.4 20.4-.4 4.4-.5 8.8-.9 13.3-1 4.4-.1 8.7-.1 13.1-.3 1.9-.1 3.8-.3 5.7-.3 2.2 0 4.3-.1 6.4-.4 2.1-.3 4.2-.6 6.3-1 2.3-.3 4.6-.9 7-1.1 0 .1.1 0 0 0zM222.6 101.6c-1.5 0-3 .1-4.4.1-1.4 0-2.8 0-4.2.2-1.5.2-3.1.1-4.6.3-1.6.2-3.4 0-5-.1s-3.1-.2-4.7-.2-3.1.2-4.6.2c-1.4.1-2.9-.1-4.3.1-.8.1-1.5.1-2.3.2-.6 0-1.3.2-1.7 0 .3.1.5.3.8.1.6-.3 1.5-.1 2.2-.1 1.5 0 3-.2 4.5-.2s3-.1 4.6-.2c1.7-.1 3.4 0 5.1.1 6.3.4 12.5-.5 18.8-.7-.2.3-.1.2-.2.2zM309.3 112.7c-1.3 0-2.7.1-4 .2-1.7.2-3.4 0-5.1.1-3.5.2-6.9.2-10.4.2-6.9.1-13.7 1.4-20.6 2.2-7.1.8-14.2 1.5-21.3 2.2-3.6.4-7.3.7-11 .7-3.3 0-6.6.1-9.8.3-4.9.3-9.8.5-14.7.8-5.1.3-10.1.8-15.2.8 0 0-.1.1 0 .1 3.4 0 6.9-.2 10.3-.4 3.7-.2 7.4-.3 11.1-.5 3.4-.1 6.9-.5 10.3-.6 3.3-.1 6.5-.2 9.8-.2 3.4 0 6.9-.5 10.3-.8 3.5-.3 7-.8 10.6-1.1 3.6-.3 7.1-.6 10.6-1.1 3.5-.4 6.9-1 10.4-1.4 5-.6 10.1-.7 15.1-.7 2.4 0 4.7-.3 7.1-.2 2.1.1 4.2-.5 6.3-.7.2.2.3.1.2.1zM309 114.5c-.4.3-1.3.2-1.8.3-.7.1-1.4.1-2.1.2-1.8.1-3.6.4-5.4.7-3.5.5-7.1.4-10.6.7-7.2.5-14.4 1.4-21.6 2.4l-10.5 1.5c-1.6.3-3.2.6-4.9.9-.8.2-1.6.1-2.4.2-.7.1-1.4.3-2.1.3-.7 0-1.4.2-1.9.6-.3.2-.4.7 0 .8 1.2.4 2.6.1 3.8.1 1.9 0 3.7-.4 5.6-.4 4.7-.2 9.3-.2 14-.2 2.2 0 4.4.1 6.6.2 2.3 0 4.5-.2 6.8-.2 2.1 0 4.2-.2 6.4-.1 1 .1 2 .1 2.9.1 1 0 1.7.3 2.7 0 1-.2 2.2 0 3.2 0s2-.1 3-.3c1.3-.2 2.4-.4 3.7-.4.6 0 1.4-.1 1.8-.5 0 0 .1-.2 0-.1-.6.4-1.8.4-2.5.4-.8 0-1.3 0-2.1.2-1.8.4-3.7.4-5.6.4-.6 0-1.2 0-1.8.1-.8.2-1.5-.1-2.3-.1-1.6 0-3.3-.3-4.9-.2-1.6 0-3.2.2-4.7.2-1.7 0-3.4.2-5.2.2-3.4.1-6.9-.2-10.3-.2-3.6 0-7.1 0-10.6.2-3.2.1-6.4.8-9.6.5-.4 0-.7-.3-.2-.5.2-.1.4-.1.6-.1.4-.1.8-.1 1.2-.1 1.7-.3 3.4-.4 5-.7 3.4-.7 6.9-1.2 10.3-1.6 8.1-1.1 16.1-2.3 24.2-2.9 4-.3 8-.3 11.9-.8 2-.3 3.9-.6 5.9-.8l2.4-.3c.4-.4.8-.4 1.1-.7.1 0 .1 0 0 0z"/><path class="st13" d="M310.8 117c-.5.6-1.9.7-2.6.8-1 .2-2 .2-3 .4-2.4.4-4.7.8-7.1 1.1-2.3.3-4.6.3-6.9.4-1.2.1-2.4.2-3.6.2-.8 0-1.6.1-2.3-.1.6-.2 1.3-.2 1.9-.4 1-.2 1.9-.6 2.9-.9 2.2-.6 4.5-1.1 6.8-1.4 2.3-.3 4.6-.5 6.9-.8 1.1-.1 2.1-.2 3.2-.3 1.1-.1 2.2-.1 3.3-.4 0 0 .1-.1 0-.1-.9.3-1.9.2-2.9.3-1.2.1-2.4.2-3.5.3-2.3.2-4.6.4-6.9.7-2.3.3-4.6.8-6.8 1.3-1.1.3-2.1.7-3.2.9-.8.2-1.5.2-2.2.6-.1 0-.3.3-.1.3.9.4 1.8.3 2.7.2 1.1-.1 2.1-.1 3.2-.2 2.7-.2 5.4-.2 8.2-.6 1.3-.2 2.5-.5 3.8-.7 1.3-.2 2.7-.6 4.1-.7.8 0 1.8-.2 2.6-.5.5.1 1.1.1 1.5-.4 0-.1 0-.1 0 0zM172.5 121.1c-1.4.2-2.9.1-4.3.3-1.7.2-3.5.1-5.2.2-1.6.1-3.2.2-4.8.4-1.8.1-3.6 0-5.4 0-1.5 0-3 .2-4.5.3-1.8.1-3.5.2-5.3.5-3.5.6-7.2.7-10.7 1-7.2.5-14.5.7-21.7 1.5-7.4.8-14.9 1.2-22.4 1.7-8.2.5-16.4 1.4-24.6 1.5-4.1 0-8.2 0-12.3.2-1.9.1-3.8.2-5.7.5-.9.2-1.8.3-2.7.5-1 .2-2.2.7-3.1.2l-.1.1c1.1.6 2.4 0 3.5-.2 1.8-.3 3.5-.5 5.3-.6 3.8-.3 7.6-.4 11.3-.4 7.2 0 14.3-.5 21.5-1 7.3-.5 14.6-.8 22-1.4 7.4-.6 14.8-1.3 22.2-1.7 4-.2 8.1-.5 12.1-.8 4.1-.4 8.2-1.1 12.4-1.2 1.9-.1 3.8-.2 5.7-.2 1.9 0 3.7-.2 5.6-.4 2-.2 4-.3 6.1-.4 1.6-.1 3.4-.2 5.1-.6 0 .1 0 0 0 0zM161.8 124.5c-.8.5-1.7.6-2.7.6-.9 0-1.8.1-2.6.2l-5.4.3c-3.9.3-7.8 1.1-11.7 1.3-3.6.2-7.2.2-10.8.6-1 .1-1.9.2-2.8.4-1 .2-2.1.5-3.2.6-1.7 0-3.5.5-5.2.3-.1 0-.3.2-.2.3 1.5.3 3.3 0 4.8-.1 1.9-.2 3.7-.6 5.6-.9 4.1-.5 8.2-.5 12.4-.7 1.8-.1 3.6-.5 5.4-.7 2.3-.3 4.6-.6 6.8-.7 1.8-.1 3.6-.2 5.4-.4 1.4-.4 3-.3 4.2-1.1z"/></g><g><path class="st14" d="M58.6 95c.6.1 1.1-.2 1.4-.7V94c-.4.3-.9.6-1.4 1-.1 0-.1 0 0 0z"/><path class="st15" d="M58.7 95.2H58.4c-.1 0-.1-.1-.1-.1 0-.1 0-.1.1-.2.3-.2.5-.3.7-.5.3-.2.5-.4.8-.5h.2c.1 0 .1.1.1.1v.4c-.4.5-.9.8-1.5.8zm1-.8c-.1.1-.3.2-.4.3-.1.1-.2.1-.3.2.3-.1.5-.3.7-.5z"/><path class="st14" d="M57.8 83.1v4.1c.2-.2.4-.4.6-.5.6-.4 1.2-.7 1.6-1.1v-4.2c-.4.3-.9.6-1.6 1-.3.3-.5.5-.6.7z"/><path class="st15" d="M57.8 87.4s-.1 0 0 0c-.1 0-.2-.1-.2-.2V83l.6-.6c.3-.2.6-.4.8-.5.3-.2.5-.3.8-.5h.2c.1 0 .1.1.1.2v4.2c0 .1 0 .1-.1.1-.2.2-.5.3-.8.5-.2.2-.5.3-.8.5-.2.1-.4.3-.6.5.1 0 0 0 0 0zm.1-4.2v3.7l.3-.3c.3-.2.6-.4.8-.5.3-.2.5-.3.7-.5v-3.7c-.2.1-.3.2-.5.3-.2.2-.5.3-.8.5l-.5.5z"/><path class="st14" d="M60.3 65.1c-.4.3-.9.5-1.5.9-.2.2-.4.3-.6.5 0 0 0 1-.1 2.1 0 1-.1 2.1-.1 2.1.2-.2.4-.4.6-.5.6-.4 1.2-.7 1.6-1l.2-3.9-.1-.2z"/><path class="st15" d="M58 70.8c-.1 0-.2-.1-.2-.2l.1-4.1v-.1l.6-.6c.3-.2.6-.4.9-.5.2-.1.5-.3.7-.4h.2l.1.1.1.1-.2 3.9c0 .1 0 .1-.1.1-.2.2-.5.3-.8.5-.2.2-.5.3-.8.5-.2.1-.4.3-.6.5.1.2.1.2 0 .2zm.3-4.2-.1 3.7.3-.3c.3-.2.6-.4.8-.5.3-.2.5-.3.7-.4l.1-3.7c-.2.1-.3.2-.5.3-.3.1-.5.3-.8.5-.1 0-.3.2-.5.4z"/><path class="st14" d="M59 64.7c-.3.1-.6.4-.8.6v1.2c.2-.2.4-.4.6-.5.6-.4 1.1-.6 1.5-.9-.3-.4-.8-.6-1.3-.4z"/><path class="st15" d="M58.2 66.7c-.1 0-.1 0 0 0-.1 0-.2-.1-.2-.2v-1.3c.2-.3.5-.6.9-.7.5-.2 1.1 0 1.4.4v.1s0 .1-.1.1c-.2.1-.4.3-.7.4-.3.1-.5.3-.8.5-.2.1-.4.3-.6.5.2.1.1.2.1.2zm.2-1.3v.7l.3-.3c.3-.2.6-.4.9-.5.2-.1.3-.2.5-.3-.3-.2-.6-.3-.9-.2-.4.1-.7.3-.8.6z"/><path class="st14" d="m57.9 74.8-.1 4.2c.2-.2.4-.4.6-.5.6-.4 1.2-.7 1.6-1v-2.1c0-1.1.1-2.1.1-2.1-.4.3-1 .6-1.6 1-.2.1-.4.3-.6.5z"/><path class="st15" d="M57.8 79.2c-.1 0-.2-.1-.2-.2l.1-4.2v-.1l.6-.6c.3-.2.6-.4.8-.5.3-.2.5-.3.8-.5h.2c.1 0 .1.1.1.1l-.1 2.1v2.1c0 .1 0 .1-.1.1-.2.2-.5.3-.8.5-.2.2-.5.3-.8.5-.2.1-.4.3-.6.5.1.1.1.2 0 .2zm.3-4.4-.1 3.8.3-.3c.3-.2.6-.4.8-.5.3-.2.5-.3.7-.5l.1-3.8c-.2.1-.3.2-.5.3-.2.2-.5.3-.8.5-.2.2-.4.3-.5.5z"/><g><path class="st14" d="m58 70.6-.1 4.1c.2-.2.4-.4.6-.5.6-.4 1.2-.7 1.6-1l.1-4.1c-.4.3-1 .6-1.6 1-.2.2-.4.3-.6.5z"/><path class="st15" d="M57.9 74.9c-.1 0-.2-.1-.2-.2l.1-4.1v-.1l.6-.6c.3-.2.6-.4.8-.5.3-.2.5-.3.8-.5h.2c.1 0 .1.1.1.1l-.1 4.1c0 .1 0 .1-.1.1-.2.2-.5.3-.8.5-.2.2-.5.3-.8.5-.2.1-.4.3-.6.5.1.2 0 .2 0 .2zm.3-4.2-.1 3.7.3-.3c.3-.2.6-.4.8-.5.3-.2.5-.3.7-.4l.1-3.7c-.2.1-.3.2-.5.3-.2.2-.5.3-.8.5-.2.1-.4.2-.5.4z"/></g><g><path class="st14" d="M57.8 87.3v4.1l.6-.6c.6-.4 1.2-.7 1.6-1.1v-4.1c-.4.3-.9.6-1.6 1.1-.3.2-.5.4-.6.6z"/><path class="st15" d="M57.8 91.6c-.1 0-.1 0 0 0-.1 0-.2-.1-.2-.2V87.2l.6-.6c.3-.2.6-.4.8-.5.3-.2.5-.3.8-.5h.2c.1 0 .1.1.1.1v4.1c0 .1 0 .1-.1.1-.2.2-.5.3-.8.5-.2.2-.5.3-.8.5-.2.1-.4.3-.6.5.1.1 0 .2 0 .2zm.1-4.3V91l.3-.3c.3-.2.6-.4.8-.5.3-.2.5-.3.7-.5V86c-.2.1-.3.2-.5.3-.2.2-.5.3-.8.5-.1.2-.3.3-.5.5z"/></g><g><path class="st14" d="M57.8 79v4.1c.2-.2.4-.4.6-.5.6-.4 1.2-.7 1.6-1l.1-4.1c-.4.3-.9.6-1.6 1-.3.1-.5.3-.7.5z"/><path class="st15" d="M57.8 83.3s-.1 0 0 0c-.1 0-.2-.1-.2-.2v-4.3l.6-.6c.3-.2.6-.4.8-.5.3-.2.5-.3.8-.5h.2c.1 0 .1.1.1.1l-.1 4.1s0 .1-.1.1c-.2.2-.5.3-.8.5-.2.2-.5.3-.8.5-.2.1-.4.3-.6.5.2.3.1.3.1.3zm.2-4.2-.1 3.7.3-.3c.3-.2.6-.4.8-.5.3-.2.5-.3.7-.5l.1-3.7c-.2.1-.3.2-.5.3-.2.2-.5.3-.8.5-.2.1-.3.3-.5.5z"/></g><g><path class="st14" d="M57.8 93.5v.8c.1.3.3.6.7.7.6-.4 1.1-.7 1.5-1v-4.2c-.4.3-.9.6-1.6 1.1l-.6.6v2z"/><path class="st15" d="M58.5 95.2c-.4-.1-.7-.4-.8-.8v-3.1l.6-.6c.3-.2.6-.4.8-.5.3-.2.5-.4.8-.5h.2c.1 0 .1.1.1.1V94c0 .1 0 .1-.1.1-.2.2-.5.3-.8.5-.2.2-.5.4-.8.6zm-.5-1c.1.2.2.5.5.6.2-.2.4-.3.6-.4.3-.2.5-.3.7-.5v-3.8c-.2.1-.3.2-.5.3-.2.2-.5.3-.8.5-.2.1-.4.3-.5.5v2.8z"/></g><path class="st14" d="M58.9 95c.4-.1.8-.3 1.1-.7V83.9c0-1.8 0-3.5.1-5.1 0-1.6 0-3.2.1-4.6.1-2.8.1-5.2.2-6.8 0-1 .1-1.8.1-2.2-.2-.3-.6-.6-1-.6 0 1-.2 4.5-.3 9.3 0 1.4-.1 3-.1 4.7 0 1.7-.1 3.4-.1 5.2v8.5c-.1.9-.1 1.8-.1 2.7zM57.8 94.3c.1.3.3.6.5.7-.1-3.8 0-7.5 0-11 0-1.8 0-3.6.1-5.2 0-1.7 0-3.2.1-4.7.1-4.7.3-8.1.3-9.2-.2.1-.4.3-.6.5 0 .4 0 1.1-.1 2-.1 1.7-.1 4-.2 6.9 0 1.4-.1 3-.1 4.6 0 1.6-.1 3.4-.1 5.1v8.3c.1.7.1 1.3.1 2z"/><g><path class="st14" d="M59.6 75.4s.1.6.3 1.1c.1.3.1.6.2.8 0 .2.1.4.1.4.2-.2.3-.3.6-.5.6-.4 1.2-.8 1.6-1.1 0 0-.2-.6-.3-1.2-.1-.3-.2-.6-.2-.8-.1-.2-.1-.4-.1-.4-.4.3-.9.7-1.5 1.1-.4.3-.5.5-.7.6z"/><path class="st15" d="M60.2 77.9c-.1 0-.2-.1-.2-.2l-.3-1.1-.3-1.1v-.2c.2-.2.4-.4.6-.5.2-.1.4-.3.6-.4.4-.3.7-.5 1-.7.1 0 .1-.1.2 0 .1 0 .1.1.1.1l.2.7.4 1.7c0 .1 0 .2-.1.2l-.9.6c-.2.1-.4.3-.7.5-.2.1-.4.3-.5.5 0-.1-.1-.1-.1-.1zm-.3-2.4.5 1.8c.1-.1.2-.2.3-.2.2-.2.5-.3.7-.5.3-.2.5-.4.8-.5l-.5-1.9c-.2.2-.5.3-.7.5-.2.1-.4.3-.6.4-.3.1-.4.3-.5.4z"/><path class="st14" d="M57.8 65.4c-.2-.1-.3-.2-.5-.3-.3.4-.6.8-1 1.3-.2.2-.3.4-.4.6l1.2 2.1c.1-.2.2-.4.4-.6.5-.6.9-1.1 1.2-1.5l-.6-1c-.1-.3-.2-.4-.3-.6z"/><path class="st15" d="M57 69.3c-.1 0-.2 0-.2-.1l-1.2-2.1v-.2c.1-.2.3-.5.4-.7.2-.3.5-.6.7-.8.1-.1.2-.3.4-.4.1-.1.2-.1.3-.1.2.1.4.2.6.4l.1.1.8 1.5v.2c-.2.2-.4.5-.6.8-.2.2-.4.5-.6.8-.2.2-.3.4-.4.6H57zm-.9-2.3.9 1.6c.1-.1.2-.2.2-.3.2-.3.4-.5.6-.8.2-.2.4-.4.5-.6l-.8-1.3c-.1-.1-.2-.1-.3-.2-.1.1-.2.2-.2.3-.2.2-.4.5-.7.8 0 .2-.1.3-.2.5z"/><path class="st14" d="M55.4 65.7c0 .1-.1.2-.1.4l.5 1c.1-.2.2-.4.4-.6.4-.5.7-.9 1-1.3-.6-.4-1.3-.4-1.8.5z"/><path class="st15" d="M55.8 67.2c-.1 0-.2 0-.2-.1l-.5-1V65.8c0-.1.1-.2.1-.3.4-.7.9-.9 1.3-.9.3 0 .6.1.9.2.1 0 .1.1.1.1v.2c-.1.1-.2.3-.4.4-.2.2-.4.5-.7.8-.2.2-.3.4-.4.6 0 .3-.1.3-.2.3.1 0 .1 0 0 0zm-.3-1.2.3.5c.1-.1.2-.2.2-.3.2-.3.5-.6.7-.8l.2-.2c-.6-.2-1 0-1.3.6 0 0 0 .1-.1.2z"/><path class="st14" d="M58.1 71.1s.1.1.2.3c.1.2.2.5.3.7.1.3.2.5.3.7.1.2.1.3.1.3.1-.2.3-.4.5-.5.6-.5 1.1-.9 1.4-1.3 0 0-.1-.2-.1-.4-.1-.2-.2-.5-.3-.8l-.6-1.2c-.3.4-.8.9-1.3 1.5-.2.3-.4.5-.5.7z"/><path class="st15" d="M59 73.4h-.1c-.1 0-.1-.1-.1-.1s0-.1-.1-.3l-.3-.7c0-.1-.1-.2-.1-.3-.1-.2-.1-.3-.2-.4l-.2-.3v-.2c.1-.2.3-.4.5-.6l.4-.4c.4-.4.7-.7.9-1.1 0-.1.1-.1.2-.1s.1.1.2.1l.6 1.2c.1.2.2.4.2.6 0 .1.1.2.1.3l.2.4v.2c-.3.3-.6.6-1.1 1l-.4.3c-.2.2-.4.3-.5.5-.1-.1-.2-.1-.2-.1zm-.6-2.3.1.2c.1.1.1.3.2.5 0 .1.1.2.1.3l.3.7.3-.3.4-.3c.4-.3.7-.6.9-.8l-.1-.2c0-.1-.1-.2-.1-.3-.1-.2-.1-.4-.2-.5l-.4-.9c-.2.3-.5.5-.7.8l-.3.4c-.3.1-.4.3-.5.4z"/><g><path class="st14" d="m57 69.1.6 1c.3.5.5 1 .5 1 .1-.2.3-.4.5-.6.5-.6 1-1 1.3-1.5 0 0-.1-.1-.2-.3-.1-.2-.3-.5-.4-.7l-.6-1c-.3.4-.7.9-1.2 1.5-.2.2-.4.4-.5.6z"/><path class="st15" d="M58.1 71.3c-.1 0-.2-.1-.2-.1s-.2-.5-.5-1l-.6-1V69c.1-.2.3-.4.4-.7.2-.3.4-.5.6-.8.2-.3.4-.5.6-.7 0-.1.1-.1.2-.1s.1 0 .2.1c0 0 .3.5.6 1.1l.4.7.2.4v.2c-.3.3-.6.7-1 1.1l-.3.4c-.2.2-.3.4-.4.6h-.2zm-.8-2.2.5.9c.1.2.3.5.3.7l.3-.3.4-.4c.3-.4.6-.7.9-1 0-.1-.1-.1-.1-.2l-.4-.7c-.2-.3-.3-.6-.4-.8-.1.2-.3.3-.4.5-.2.2-.4.5-.6.8-.3.1-.4.3-.5.5z"/></g><g><path class="st14" d="m60.2 77.7.5 2.3c.2-.2.3-.3.6-.5.6-.4 1.2-.7 1.6-1 0 0-.1-.6-.3-1.2-.1-.6-.3-1.2-.3-1.2-.4.3-.9.6-1.6 1.1l-.5.5z"/><path class="st15" d="M60.7 80.3c-.1 0-.2-.1-.2-.2l-.5-2.3c0-.1 0-.1.1-.2.2-.2.4-.3.6-.5.2-.2.5-.3.7-.5l.9-.6c.1 0 .1-.1.2 0 .1 0 .1.1.1.1s.2.6.3 1.2l.3 1.2c0 .1 0 .2-.1.2-.2.2-.5.4-.9.6-.2.1-.5.3-.8.5-.2.1-.4.3-.5.4-.1.1-.1.1-.2.1zm-.3-2.5.4 1.8c.1-.1.2-.2.3-.2.3-.2.5-.3.8-.5.3-.2.5-.3.7-.5l-.2-1c-.1-.3-.1-.6-.2-.9-.2.1-.4.3-.6.4-.2.1-.4.3-.7.5-.2.1-.3.3-.5.4z"/></g><g><path class="st14" d="M59 73.2s.2.6.3 1.1c.2.5.3 1.1.3 1.1.1-.2.3-.3.6-.5.6-.5 1.1-.8 1.5-1.1l-.4-1.2c-.1-.3-.2-.6-.3-.8-.1-.2-.1-.4-.1-.4-.4.4-.9.8-1.4 1.3l-.5.5z"/><path class="st15" d="M59.6 75.7c-.1 0-.2-.1-.2-.2 0 0-.1-.6-.3-1.1l-.3-1.1v-.2c.2-.2.3-.4.6-.6l.4-.3c.4-.3.8-.7 1-.9.1-.1.1-.1.2-.1s.1.1.2.1l.1.4c.1.2.2.5.3.8l.4 1.3c0 .1 0 .2-.1.2-.3.2-.6.5-1 .7-.2.1-.4.3-.6.4-.2.1-.4.3-.5.5-.1 0-.1.1-.2.1zm-.4-2.4.3 1c.1.3.2.5.2.8l.3-.3c.2-.1.4-.3.6-.4l.9-.6-.3-1.1c-.1-.3-.2-.5-.3-.7v-.1c-.2.2-.5.5-.8.7l-.4.3c-.2.1-.4.2-.5.4z"/></g><g><path class="st14" d="m63.2 80-.3-1.4c-.4.3-1 .6-1.6 1-.2.2-.4.3-.6.5v.2c.7.3 1.9.2 2.5-.3z"/><path class="st15" d="M61.7 80.7c-.4 0-.8-.1-1-.2-.1 0-.1-.1-.1-.1v-.2c0-.1 0-.1.1-.2.2-.2.4-.3.6-.5.3-.2.5-.3.8-.5.3-.2.6-.4.8-.5.1 0 .1-.1.2 0 .1 0 .1.1.1.2l.3 1.4c0 .1 0 .2-.1.2-.4.2-1.1.4-1.7.4zm-.7-.6c.2.1.4.1.7.1.5 0 1-.1 1.3-.4l-.2-1c-.2.1-.4.2-.6.4-.2.1-.5.3-.8.5l-.4.4z"/></g><path class="st14" d="M62.6 77.4c-.4-1.5-.8-3.6-1.6-5.6l-.6-1.5c-.2-.5-.5-1-.7-1.4-.5-.9-.9-1.7-1.3-2.3-.3-.4-.5-.8-.7-1.1-.5-.4-1.1-.7-1.7-.5.2.4.6 1.1 1.1 2 .8 1.4 1.9 3.2 2.6 5.2.7 2 1.2 4.1 1.6 5.7.3 1.6.6 2.6.6 2.6.4-.1.9-.2 1.2-.5.1 0-.1-1-.5-2.6z"/><path class="st14" d="M60.9 77.9c-.4-1.5-.8-3.6-1.5-5.5s-1.7-3.6-2.5-5c-.4-.7-.7-1.3-.9-1.7-.1-.1-.1-.3-.2-.4-.1.1-.1.2-.2.3 0 .1-.1.2-.1.4 0 .1.1.2.2.3.2.4.5.9.9 1.6.4.7.8 1.4 1.2 2.2l.6 1.2c.2.4.3.9.5 1.3l.1.3.1.3c.1.2.1.5.2.7.1.5.3.9.4 1.4.2.9.5 1.7.6 2.5.3 1.5.5 2.4.5 2.4.2.1.4.2.7.2-.1.1-.3-1-.6-2.5z"/></g><g><path class="st14" d="M55.9 74.2s-.2.6-.3 1.2c-.1.3-.1.6-.2.9 0 .2-.1.4-.1.4.2-.1.5-.1.7-.2.8-.1 1.4-.1 1.9-.2 0 0 .2-.6.3-1.1.1-.3.1-.6.2-.8.1-.2.1-.3.1-.3h-2c-.1 0-.3 0-.6.1z"/><path class="st15" d="M55.3 76.9c-.1 0-.1 0-.1-.1-.1-.1-.1-.1-.1-.2l.1-.6c0-.2.1-.5.2-.7l.3-1.2c0-.1.1-.1.1-.2.2-.1.5-.1.8-.1h1.9c.1 0 .1 0 .2.1 0 .1.1.1 0 .2l-.1.3c-.1.2-.1.3-.2.6l-.4 1.3c0 .1-.1.1-.2.2-.2 0-.5.1-.7.1-.4 0-.8.1-1.2.1l-.6.2c.1 0 .1 0 0 0zm.8-2.5-.3 1.1c-.1.2-.1.5-.2.7v.2c.1 0 .3-.1.4-.1.5-.1.9-.1 1.2-.1.2 0 .4 0 .6-.1l.3-1.2c.1-.2.1-.4.2-.6h-1.6c-.2 0-.4 0-.6.1z"/><path class="st14" d="M61.5 65.3c-.2.1-.4.1-.5.2l-.7.7c-.2.2-.4.5-.6.7l-.3.3c.2 0 .5.1.8.2.7.3 1.3.5 1.8.7 0 0 .1-.1.2-.3.1-.1.3-.4.5-.5.2-.2.4-.4.6-.5.2-.1.3-.2.3-.2-.4-.3-.9-.7-1.6-1.1-.1-.1-.3-.2-.5-.2z"/><path class="st15" d="M62 68.2c-.2-.1-.4-.2-.6-.2-.4-.2-.8-.3-1.3-.5-.2-.1-.5-.1-.7-.2-.1 0-.2-.1-.2-.1V67l.3-.3.2-.2c.1-.2.3-.3.4-.5l.7-.7h.1c.2-.1.4-.2.6-.2h.1c.2.1.4.1.5.2.5.3 1 .6 1.3.9.1.1.2.1.3.2.1 0 .1.1.1.2s0 .1-.1.2c0 0-.1.1-.3.2-.2.1-.4.3-.6.5l-.4.4-.2.2-.2.2c.1-.1.1-.1 0-.1zM59.9 67c.1 0 .3.1.4.1.5.2.9.4 1.3.5.1.1.3.1.4.2l.1-.1s.1-.1.1-.2l.4-.4c.2-.2.4-.4.6-.5h-.1c-.4-.3-.8-.5-1.3-.8-.1-.1-.2-.1-.4-.2-.1 0-.3.1-.4.2-.2.2-.5.4-.6.6-.2.2-.3.3-.4.5 0-.1-.1 0-.1.1z"/><path class="st14" d="M64.1 65.6c0-.1-.1-.2-.2-.3-.4-.3-.9-.3-1.3-.3-.3 0-.7.1-1 .2.2.1.3.1.5.2.7.4 1.2.8 1.6 1.1l.4-.3v-.6z"/><path class="st15" d="M63.7 66.7h-.1c-.1-.1-.2-.1-.3-.2-.4-.3-.8-.5-1.3-.8-.1-.1-.3-.1-.5-.2-.1 0-.2-.1-.2-.2s.1-.2.2-.2c.4-.1.7-.2 1.1-.2h.4c.5 0 .8.1 1.1.3.1.1.2.2.3.4.1.3.1.5 0 .8 0 .1-.1.1-.1.2-.1 0-.3.2-.4.3l-.2-.2zm-1.5-1.4c.5.3 1 .6 1.3.8.1 0 .1.1.2.1.1-.1.1-.1.2-.1v-.5s-.1-.1-.1-.2c-.2-.2-.5-.2-.8-.2h-.3c-.2.1-.4.1-.5.1z"/><path class="st14" d="m58 69.3-.6 1.2c-.2.3-.3.6-.4.8l-.2.4c.2 0 .5-.1.8 0 .8 0 1.4.1 1.9.2 0 0 .1-.1.2-.3.1-.2.2-.5.4-.7.1-.3.3-.5.4-.7.1-.2.2-.3.2-.3-.5-.1-1.1-.3-1.9-.4-.3-.2-.6-.2-.8-.2z"/><path class="st15" d="M59.5 72.1c-.2 0-.4 0-.7-.1-.4 0-.8-.1-1.3-.1h-.7c-.1 0-.2 0-.2-.1s-.1-.1 0-.2l.2-.4c0-.1.1-.2.1-.3l.3-.6.6-1.2c0-.1.1-.1.2-.1.3 0 .5 0 .8.1.5.1.9.2 1.3.3.2.1.4.1.6.1.1 0 .1.1.2.1v.2l-.2.3c0 .1-.1.1-.1.2-.1.1-.2.3-.3.5l-.4.7c-.1.2-.2.3-.2.3 0 .2-.1.3-.2.3zm-2.1-.6h.2c.5 0 .9.1 1.3.1.2 0 .3 0 .5.1 0-.1.1-.1.1-.2l.4-.7c.1-.2.2-.4.3-.5 0-.1.1-.1.1-.2V70c-.1 0-.2 0-.3-.1-.4-.1-.8-.2-1.3-.3-.2 0-.4-.1-.6-.1l-.6 1.1-.3.6c0 .1-.1.2-.1.3h.3z"/><g><path class="st14" d="M59.5 67.1s-.4.5-.8 1.1c-.3.6-.7 1.1-.7 1.1.2 0 .5 0 .8.1.8.1 1.4.3 1.9.4 0 0 .1-.1.2-.3.1-.2.3-.4.5-.6.2-.2.4-.4.5-.6 0-.2.1-.3.1-.3-.5-.2-1.1-.5-1.8-.7-.3-.1-.5-.1-.7-.2z"/><path class="st15" d="M60.7 70c-.1 0-.1 0 0 0-.2 0-.4-.1-.6-.1-.4-.1-.8-.2-1.3-.3-.3 0-.5-.1-.7 0-.1 0-.2 0-.2-.1v-.2l.7-1.1c.4-.6.8-1.1.8-1.1 0-.1.1-.1.2-.1.3 0 .5.1.8.2.5.2.9.4 1.3.5.2.1.4.1.5.2.1 0 .1.1.1.1v.2l-.3.2c0 .1-.1.1-.2.2s-.2.3-.3.4l-.5.7c-.1.2-.2.3-.2.3h-.1zm-2.3-.9c.1 0 .3 0 .4.1.5.1.9.2 1.3.3.2 0 .3.1.4.1 0 0 .1-.1.1-.2l.5-.6c.1-.2.2-.3.3-.4l.2-.2c-.1 0-.2-.1-.2-.1-.4-.2-.8-.3-1.3-.5-.2-.1-.4-.1-.6-.1-.1.2-.4.6-.7 1l-.4.6z"/></g><g><path class="st14" d="M56.1 76.5c-.3 0-.5.1-.7.2 0 0-.1.3-.1.7 0 .6.1 1.1.2 1.7.1 0 .2 0 .2-.1.8-.2 1.4-.2 1.9-.4v-.4c0-.2.1-.5.2-.8l.2-1.2c-.5.1-1.2.2-1.9.3z"/><path class="st15" d="M55.4 79.2h-.1c-.1 0-.1-.1-.1-.1-.1-.6-.2-1.1-.2-1.8.1-.4.1-.7.1-.7 0-.1.1-.1.1-.2.2-.1.5-.2.8-.2.5-.1.9-.1 1.2-.1.3 0 .5 0 .7-.1.1 0 .1 0 .2.1 0 .1.1.1.1.2l-.4 1.9v.4c0 .1-.1.2-.2.2-.2.1-.5.1-.8.1-.3.1-.7.1-1.1.2-.1.1-.1.1-.3.1.1 0 .1 0 0 0zm0-1.8c0 .5.1.9.2 1.4.4-.1.8-.2 1.2-.2.2 0 .4-.1.6-.1v-.2l.3-1.7h-.4c-.4 0-.8.1-1.2.1-.2 0-.4.1-.6.1 0 .1 0 .3-.1.6z"/></g><g><path class="st14" d="M56.8 71.7s-.1.1-.2.4c-.1.2-.2.5-.3.8-.1.3-.2.6-.3.8-.1.2-.1.4-.1.4.2-.1.5-.1.8-.1h2s0-.1.1-.3c.1-.2.2-.5.3-.7.2-.5.5-1.1.5-1.1-.5 0-1.2-.1-1.9-.2h-.9z"/><path class="st15" d="M55.9 74.4c-.1 0-.1 0-.2-.1s-.1-.1.1-.6l.4-1.2c.1-.2.1-.4.2-.5l.2-.4c0-.1.1-.1.2-.1.3 0 .5-.1.8 0 .5 0 .9.1 1.3.1.2 0 .5 0 .7.1.1 0 .1 0 .2.1v.2l-.6 1c-.1.2-.1.3-.2.5 0 .1-.1.2-.1.3l-.1.3c0 .1-.1.1-.2.1h-2c-.2.1-.4.1-.7.2.1 0 .1 0 0 0zm1.1-2.5-.1.3c-.1.1-.1.3-.2.5l-.4 1.2H58.5l.1-.2c0-.1.1-.2.1-.2.1-.2.1-.3.2-.5l.3-.8h-.4c-.4 0-.8-.1-1.3-.1-.2-.2-.4-.2-.5-.2z"/></g><g><path class="st14" d="M55.7 78.9c-.1 0-.2 0-.2.1 0 .2.1.3.2.5s.3.3.5.4c.5.1.9 0 1.3-.2l.1-1.1c-.5.1-1.2.2-1.9.3z"/><path class="st15" d="M56.5 80.1c-.2 0-.3 0-.5-.1-.3-.1-.5-.2-.6-.4-.1-.2-.1-.3-.2-.5 0-.1 0-.2.1-.3.1 0 .2-.1.3-.1.4-.1.8-.2 1.2-.2.3 0 .5-.1.7-.1.1 0 .1 0 .2.1.1 0 .1.1.1.2l-.1 1.1c0 .1-.1.1-.1.2-.4 0-.8.1-1.1.1zm-.7-.7c.1.1.2.2.4.3h.4c.2 0 .5-.1.7-.2l.1-.7c-.1 0-.3.1-.5.1-.3.1-.7.1-1.1.2-.1.1-.1.2 0 .3z"/></g><path class="st14" d="M64.1 65.6c0-.1-.1-.2-.2-.3-.1-.1-.2-.1-.3-.2-.1.1-.2.1-.4.3a14.16 14.16 0 0 0-3.3 3.5c-.3.4-.6.9-.8 1.3-.2.5-.5.9-.7 1.5-.5 1-.8 2-1.1 3-.1.5-.3 1-.4 1.4-.1.5-.2.9-.3 1.3-.2.8-.2 1.5-.3 2 0 .2-.1.4-.1.6.5.1.9 0 1.3-.2v-.4c.1-.4.1-1.1.3-1.8.1-.4.2-.8.2-1.2.1-.4.2-.9.4-1.3.1-.5.3-.9.5-1.4.1-.5.4-.9.6-1.4.8-1.8 1.9-3.4 2.9-4.5.5-.5 1-.9 1.3-1.1.3-.2.5-.4.5-.4-.1-.3-.1-.5-.1-.7z"/><path class="st14" d="m61 65.5-.6.6c-.3.3-.6.7-.9 1l-.9 1.2c-.6.9-1.1 1.8-1.6 2.8-.9 2-1.5 4.1-1.8 5.7 0 .2-.1.4-.1.6 0 .7.1 1.4.3 2v-.3c.1-.5.1-1.2.3-2 .3-1.6.9-3.8 1.8-5.8.2-.5.5-1 .7-1.5.3-.5.6-.9.8-1.4.6-.9 1.2-1.6 1.8-2.2.5-.5 1-.9 1.4-1.2-.2.1-.7.2-1.2.5z"/></g><g><path class="st15" d="M65.1 90.3c0-.1 0-.1 0 0-.1 0-.3.2-.4.2 0-.2 0-.3-.1-.5v-.1l.3-.3s0-.1 0 0c-.1.1-.2.2-.3.2v-.1l.2-.2s0-.1 0 0-.1.1-.2.1c0-.1-.1-.1-.1-.2.1-.1.2-.2.2-.3-.1.1-.1.2-.2.2 0-.1-.1-.1-.1-.1 0-.1 0-.1.1-.1v-.2h-.1s0 .1-.1.1c0 .1 0 .1-.1.1l-.1-.1c0-.1.1-.2.1-.3h-.1c0 .1 0 .2-.1.3-.2 0-.3.1-.5.2-.4.3-1.2 1-1.8.9 0-.2-.1-.4-.3-.6-.3-.4-1-.4-1.4-.2-.2.1-.5.2-.7.4-.1 0-.2.1-.2 0-.5-.3-1-.4-1.6-.4-.4 0-1.2.3-1.4.7-.2.3 0 .6.2.9-1.3.2-2.7 1.5-3 2.8v.2c-.1.1-.2.3-.3.5 0 .1 0 0 .1 0 .1-.1.1-.3.2-.4v.1c0 .1-.1.1-.1.2-.1.1-.1.3-.1.4h.1c0-.2.1-.3.2-.5.1.2.2.3.4.5-.1.1-.2.2-.2.4h.1c0-.1.1-.2.2-.3.1.1.2.1.2.2-.1.1-.1.3-.2.4h.1c0-.1.1-.2.1-.3.1.1.2.1.3.2 0 .1-.1.2-.1.3h.1c0-.1.1-.2.1-.2h.1c-.1.1-.1.3-.1.4h.1v-.1c0-.1.1-.2.1-.2h.2v.3s.1 0 .1-.1v-.2s.1 0 .1-.1c.1-.1.1-.1.1-.2.2-.3.5-.6.7-.9-.1.4 0 .7.3 1 .3.4 1 .4 1.4.1.6-.4.9-1.1 1.3-1.6.6.7 1 1.7 1.9 2 1.4.4 1.3-1.8 1.1-2.4-.1-.2-.1-.3-.2-.5.5.1 1.3-.2 1.7-.4.5-.2.9-.5 1.1-.9.1.1.4 0 .5-.1 0 0 0-.1 0 0-.1.1-.3 0-.4.1 0-.1.1-.1.1-.2.2 0 .3-.1.4-.2 0-.1 0-.1 0 0-.1.1-.2.1-.3.1V91c0-.5.2-.6.3-.7z"/><path class="st14" d="M64.4 89.8v.1c-.1 0-.2-.1-.2-.1-.2 0-.3-.1-.5-.2-.1 0-.1-.1-.1-.1.3-.2.6-.2.8.3zM61.6 90.6c0 .4-.2.7-.4.9-.1-.5-.1-1.2.1-1.7.2.3.3.5.3.8z"/><path class="st14" d="M61.1 89.6c.1 0 .2.1.2.2-.3.5-.3 1.2-.2 1.8l-.1.1c-.3-.4-.6-.7-.9-1v-.5c0-.2 0-.3.1-.5 0-.1.1-.1.1-.2.3 0 .6 0 .8.1zM60.7 91.6c-.4-.2-.8-.4-1.3-.4-.4 0-.7 0-1.1.1-.4.1-.7 0-1.1.1-.2-.2-.4-.3-.7-.5l-.2-.2c.3-.6 1.8-.6 2.3-.5.4.1.7.2 1.1.4.4.3.7.7 1 1z"/><path class="st14" d="M59.9 89.6c.2-.1.3-.1.5-.1-.2.2-.2.4-.3.7v.4c-.2-.3-.5-.5-.8-.7.1-.1.4-.2.6-.3zM56.6 90c1-.5 1.6-.4 2.5.1.1.1.3.2.4.3-.5-.2-1-.3-1.6-.2-.4 0-1.3.1-1.5.6-.2-.3-.3-.6.2-.8zM55.7 91.4c.1 0 .5-.2.7-.3.2.1.4.3.5.4l.2.2c-.2.1-.5.7-.6.7-.2.2-.3.5-.4.7-.1-.3-.3-.5-.3-.8 0-.1 0-.7-.1-.9zM54.2 94.7c-1.1-.6-.4-1.7.2-2.4-.1.4 0 .8.1 1.1.1.4.3.9.6 1.3-.3.3-.6.2-.9 0z"/><path class="st14" d="M55.9 93.8c-.2.1-.4.3-.6.5-.1.1-.1.2-.2.3v.1c-.2-.3-.3-.6-.4-1-.1-.4-.3-1-.2-1.4.3-.3.8-.6 1.2-.8 0 .7.1 1.3.4 1.8v.1c-.1.1-.2.2-.2.4zM56.8 95c-.7-.1-.8-.7-.7-1.3v-.2c.1.5.4 1.1.8 1.4-.1.2-.1.2-.1.1z"/><path class="st14" d="M57.1 95c-.6-.3-.9-1-1-1.6 0-.1 0-.1.1-.2.1-.3.3-.6.5-.9.1.9.5 1.6 1.3 2.1-.3.4-.5.6-.9.6z"/><path class="st14" d="M58 94.5c-.3-.3-.6-.5-.8-.8-.3-.4-.4-.8-.5-1.3.2-.2.3-.5.5-.7.2.2.4.4.5.6 0 .1 0 .1.1.2.1.2.1.4.2.6.1.2.3.6.5.8-.1.1-.3.3-.5.6zM58.7 93.6c-.2-.2-.4-.6-.6-.9-.1-.1-.1-.2-.2-.4.3.3.5.6.8.9l.1.1c-.1.2-.1.3-.1.3zM60.4 95.1c-.3-.2-.7-.8-1-1.2.4.2.7.3 1.1.5.4.2.7.5 1 .7-.2.3-.6.3-1.1 0z"/><path class="st14" d="M61.6 95c-.2-.3-.6-.5-.8-.6-.5-.3-.9-.4-1.4-.6l-.9-1.2 1.5.3c.8.2 1.3.6 1.9 1-.1.4-.1.8-.3 1.1z"/><path class="st14" d="M61.6 93.3c.1.1.1.3.1.4-.8-.9-2.3-1.3-3.4-1.2-.3-.4-.6-.7-1-1 .7-.1 1.4-.2 2-.1.6 0 1.1.4 1.6.6.3.4.6.9.7 1.3zM61.5 92.4c-.1-.1-.2-.3-.3-.4l-.1-.1c.2-.1.4-.3.5-.5.1.3.3.5.5.8.1.1.3.2.5.3-.4-.1-.8 0-1.1-.1z"/><path class="st14" d="M63.3 92.1c-.1.1-.2.1-.4.2-.3 0-.6-.2-.8-.4-.1-.1-.3-.2-.4-.4 0 0-.1-.3-.2-.3.2-.3.2-.6.2-.9.2.1.3 0 .5 0 .1.4.7.8 1 .9.2.1.8.2 1 .1-.1.4-.5.6-.9.8z"/><path class="st14" d="M64.5 90.9c0 .1-.1.2-.1.3-.3.2-1-.1-1.3-.3-.2-.1-.3-.2-.5-.4l-.3-.3c.2-.1.3-.2.5-.2.2-.1.5-.3.7-.5 0 .1.1.1.1.2.1.1.3.1.4.2.1.1.3.1.4.1.1.3.1.6.1.9z"/><path class="st14" d="M65.1 90.3c0-.1 0-.1 0 0-.1 0-.3.2-.4.2 0-.2 0-.3-.1-.5v-.1l.3-.3s0-.1 0 0c-.1.1-.2.2-.3.2v-.1l.2-.2s0-.1 0 0-.1.1-.2.1c0-.1-.1-.1-.1-.2.1-.1.2-.2.2-.3-.1.1-.1.2-.2.2 0-.1-.1-.1-.1-.1 0-.1 0-.1.1-.1v-.2h-.1s0 .1-.1.1c0 .1 0 .1-.1.1l-.1-.1c0-.1.1-.2.1-.3h-.1c0 .1 0 .2-.1.3-.2 0-.3.1-.5.2-.4.3-1.2 1-1.8.9 0-.2-.1-.4-.3-.6-.1-.1-.2-.2-.3-.2 0 .4-.2.7-.6.9-.4.2-1-.1-1.4-.3l-.1-.1c-.3-.2-.7-.3-1.1-.3.7.3 1.4 1 1.8 1.6.3.5 1.4 2.2.8 2.8-.2.2-.6 0-.8-.2-.5-.6-.9-1.4-1.5-2-.5-.6-1.2-.7-1.8-1.1-.2-.2-.4-.3-.4-.5v.1c-.2.3 0 .6.2.9-.2 0-.5.1-.7.2.3 0 .6 0 .9.2.7.4-.4 1-.6 1.3-.4.4-.6.9-1 1.3-.2.2-.5.5-.8.4-.5-.1-.7-.4-.7-.8 0 .1-.1.2-.1.3v.2c-.1.1-.2.3-.3.5 0 .1 0 0 .1 0 .1-.1.1-.3.2-.4v.1c0 .1-.1.1-.1.2-.1.1-.1.3-.1.4h.1c0-.2.1-.3.2-.5.1.2.2.3.4.5-.1.1-.2.2-.2.4h.1c0-.1.1-.2.2-.3.1.1.2.1.2.2-.1.1-.1.3-.2.4h.1c0-.1.1-.2.1-.3.1.1.2.1.3.2 0 .1-.1.2-.1.3h.1c0-.1.1-.2.1-.2h.1c-.1.1-.1.3-.1.4h.1V96c0-.1.1-.2.1-.2h.2v.3s.1 0 .1-.1v-.2s.1 0 .1-.1c.1-.1.1-.1.1-.2.2-.3.5-.6.7-.9-.1.4 0 .7.3 1 .3.4 1 .4 1.4.1.6-.4.9-1.1 1.3-1.6.6.7 1 1.7 1.9 2 1.4.4 1.3-1.8 1.1-2.4-.1-.2-.1-.3-.2-.5.5.1 1.3-.2 1.7-.4.5-.2.9-.5 1.1-.9.1.1.4 0 .5-.1 0 0 0-.1 0 0-.1.1-.3 0-.4.1 0-.1.1-.1.1-.2.2 0 .3-.1.4-.2 0-.1 0-.1 0 0-.1.1-.2.1-.3.1v-.3c.1-.8.3-.9.4-1zm-7.5 3.1c-.2.5-.3 1.2-.9 1.3-.6.2-.7-.6-.6-.9.1-.6.3-1.3.8-1.7.1-.1.1-.1.2 0 .2-.1.4.1.5.3.2.3.1.7 0 1zm6.4-2.7c-.2.3-.5.5-.7.7-.3.2-1 .6-1.4.5-.4-.1-.3-.5-.1-.8 0-.6.6-.8 1.1-1.1.2-.1.5-.3.8-.4h.2c.1 0 .3 0 .4.2.1.2-.1.7-.3.9z"/><g><path class="st16" d="M55.8 91.5c-.2.1-.5.2-.7.3-.3.2-.6.4-.8.6-.3.4-.6.8-.7 1.4 0 .1.1 0 .1 0 .2-.4.4-.8.7-1.1.4-.5.9-.8 1.4-1.2zM56.8 92.5c-.1.2-.3.3-.4.5-.1.2-.2.4-.2.7 0 .1.1 0 .2-.1.1-.2.1-.4.2-.5 0-.2.1-.4.2-.6zM58.6 91.5c-.5-.6-1.3-.8-2-1.2 0 0-.1 0 0 .1.6.4 1.2.7 1.7 1.1.6.5 1 1.1 1.4 1.7 0 0 .1 0 .1-.1-.3-.5-.7-1.1-1.2-1.6zM60.7 89.6c-.1-.1-.4 0-.5 0-.1 0-.6.3-.6.3.4-.1.7-.3 1.1-.2-.1 0 0-.1 0-.1zM63.4 89.9l-.6.3s-.1.2 0 .1c.1 0 .2-.1.3-.1 0-.1.2-.1.3-.3 0 .1 0 0 0 0z"/></g></g></g><g><path class="st14" d="m276.6 88.8.1 4.2c.2-.2.3-.4.6-.6.6-.5 1.1-.8 1.5-1.1l-.1-4.2c-.4.3-.9.6-1.5 1.1l-.6.6z"/><path class="st15" d="M276.7 93.1c-.1 0-.2-.1-.2-.2l-.1-4.2v-.1l.6-.6c.3-.2.5-.4.8-.6.3-.2.5-.4.7-.5h.2c.1 0 .1.1.1.1l.1 4.2c0 .1 0 .1-.1.1-.2.2-.5.4-.8.6-.2.2-.5.3-.8.6-.2.1-.4.3-.5.5.1.1.1.1 0 .1zm.1-4.2.1 3.7.3-.3c.3-.2.5-.4.8-.6.3-.2.5-.3.7-.5l-.1-3.8c-.2.1-.3.2-.5.4s-.5.3-.8.5c-.2.2-.4.4-.5.6z"/><path class="st14" d="m278.9 94.4-.1-3.1c-.4.3-.9.6-1.5 1.1l-.6.6v1.9c.7.6 1.7.3 2.2-.5z"/><path class="st15" d="M277.5 95.4c-.3 0-.6-.1-.9-.3l-.1-.1v-2l.6-.6c.3-.2.5-.4.8-.6.3-.2.5-.4.7-.5 0 0 .1-.1.2 0 .1 0 .1.1.1.1l.1 3.1v.1c-.3.4-.9.8-1.5.8zm-.6-.6c.5.4 1.4.2 1.8-.5l-.1-2.7c-.2.1-.3.2-.5.4s-.5.3-.8.6c-.2.1-.4.3-.5.5l.1 1.7z"/><path class="st14" d="M276.4 76.2v4.2c.2-.2.3-.4.6-.6.6-.4 1.1-.8 1.5-1.1v-4.2c-.4.3-.9.6-1.6 1.1-.1.2-.3.4-.5.6z"/><path class="st15" d="M276.5 80.5s-.1 0 0 0c-.1 0-.2-.1-.2-.2V76l.6-.6c.3-.2.6-.4.8-.5.3-.2.5-.4.8-.5h.2c.1 0 .1.1.1.1v4.2c0 .1 0 .1-.1.1-.2.2-.5.3-.8.5-.2.2-.5.3-.8.5-.2.1-.4.3-.5.5 0 .2-.1.2-.1.2zm.1-4.3v3.7l.3-.3c.3-.2.5-.4.8-.5.3-.2.5-.3.7-.5v-3.8c-.2.1-.3.2-.5.3-.2.2-.5.3-.8.5-.2.3-.3.4-.5.6z"/><path class="st14" d="M277.3 59.4c-.3.1-.5.3-.7.5v3.6c.2-.2.4-.4.6-.5.6-.4 1.2-.7 1.6-1v-2c-.4-.5-.8-.9-1.5-.6z"/><path class="st15" d="M276.5 63.7c-.1 0-.2-.1-.2-.2l.1-3.6v-.1c.2-.3.5-.5.8-.6.7-.3 1.2-.1 1.7.7V62s0 .1-.1.1c-.2.2-.5.3-.8.5-.2.2-.5.3-.8.5-.2.1-.4.3-.6.5 0 .1 0 .1-.1.1zm.3-3.7-.1 3.1.3-.3c.3-.2.6-.4.8-.5.3-.2.5-.3.7-.5v-1.9c-.3-.6-.7-.7-1.2-.5-.2.2-.4.4-.5.6z"/><path class="st14" d="M276.5 67.7V72l.6-.6c.6-.4 1.2-.7 1.6-1.1v-4.2c-.4.3-.9.6-1.6 1-.3.2-.5.4-.6.6z"/><path class="st15" d="M276.5 72.2c-.1 0-.1 0 0 0-.1 0-.2-.1-.2-.2V67.6l.6-.6c.3-.2.6-.4.8-.5.3-.2.5-.3.8-.5h.2c.1 0 .1.1.1.1v4.3c0 .1 0 .1-.1.1-.2.2-.5.3-.8.5-.2.2-.5.3-.8.5-.2.1-.4.3-.6.5v.2zm.1-4.4v3.8l.3-.3c.3-.2.6-.4.8-.5.3-.2.5-.3.7-.5v-3.9c-.2.1-.3.2-.5.3-.2.2-.5.3-.8.5-.1.2-.3.4-.5.6z"/><g><path class="st14" d="m276.5 63.5-.1 4.2c.2-.2.4-.4.6-.5.6-.4 1.2-.7 1.6-1l.1-4.2c-.4.3-.9.6-1.6 1-.2.2-.4.4-.6.5z"/><path class="st15" d="M276.5 67.9c-.1 0-.1 0 0 0-.1 0-.2-.1-.2-.2l.1-4.2v-.1l.6-.6c.3-.2.6-.4.8-.5.3-.2.5-.3.8-.5h.2c.1 0 .1.1.1.1l-.1 4.2c0 .1 0 .1-.1.1-.2.2-.5.3-.8.5-.2.2-.5.3-.8.5-.2.1-.4.3-.6.5.1.2 0 .2 0 .2zm.2-4.3-.1 3.7.3-.3c.3-.2.6-.4.8-.5.3-.2.5-.3.7-.5l.1-3.8c-.2.1-.3.2-.5.3-.2.2-.5.3-.8.5-.2.3-.4.4-.5.6z"/></g><g><path class="st14" d="M276.5 80.4v4.2c.2-.2.3-.4.6-.6.6-.5 1.1-.8 1.6-1.1v-4.2c-.4.3-.9.6-1.5 1.1-.4.2-.6.4-.7.6z"/><path class="st15" d="M276.5 84.7c-.1 0-.2-.1-.2-.2v-4.3l.6-.6c.3-.2.5-.4.8-.5.3-.2.5-.4.8-.5h.2c.1 0 .1.1.1.1v4.2c0 .1 0 .1-.1.1-.2.2-.5.4-.8.5-.2.2-.5.3-.8.5-.2.1-.4.3-.5.5 0 .2 0 .2-.1.2zm.1-4.3v3.7l.3-.3c.3-.2.5-.4.8-.5.3-.2.5-.3.7-.5V79c-.2.1-.3.2-.5.3-.2.2-.5.3-.8.5-.1.3-.3.4-.5.6z"/></g><g><path class="st14" d="M276.5 72v4.2c.2-.2.3-.4.6-.6.6-.4 1.2-.7 1.6-1.1v-4.2c-.4.3-.9.6-1.6 1.1-.3.2-.5.4-.6.6z"/><path class="st15" d="M276.4 76.3c-.1 0-.2-.1-.2-.2v-4.3l.6-.6c.3-.2.6-.4.8-.5.3-.2.5-.4.8-.5h.2c.1 0 .1.1.1.1v4.2c0 .1 0 .1-.1.1-.2.2-.5.3-.8.5-.2.2-.5.3-.8.5-.2.1-.4.3-.5.5 0 .2 0 .2-.1.2zm.2-4.2v3.7l.3-.3c.3-.2.6-.4.8-.5.3-.2.5-.3.7-.5v-3.8c-.2.1-.3.2-.5.3-.2.2-.5.3-.8.5-.2.2-.3.4-.5.6z"/></g><g><path class="st14" d="M276.5 84.5V88.8c.2-.2.3-.4.6-.6.6-.5 1.1-.8 1.5-1.1v-4.2c-.4.3-.9.6-1.6 1.1l-.5.5z"/><path class="st15" d="M276.6 89c-.1 0-.2-.1-.2-.2l-.1-4.3v-.1l.6-.6c.3-.2.5-.4.8-.5.3-.2.5-.4.8-.5h.2c.1 0 .1.1.1.1v4.2s0 .1-.1.1c-.2.2-.5.4-.8.6-.2.2-.5.3-.8.5-.2.1-.4.3-.5.5.1.1.1.2 0 .2zm.1-4.4v3.8l.3-.3c.3-.2.5-.4.8-.6.3-.2.5-.3.7-.5v-3.8c-.2.1-.3.2-.5.3-.2.2-.5.3-.8.5-.2.2-.4.4-.5.6z"/></g><path class="st14" d="M277.6 82.6v2.9c0 1 0 1.9.1 2.9.1 2.3.1 4.5.2 6.8.4-.1.8-.3 1.1-.7-.1-2.1-.1-4.1-.1-6.2 0-1 0-1.9-.1-2.9V67.3c0-2.9.1-5.3.1-6.9v-.3c-.2-.4-.6-.7-1.1-.7 0 1.7-.1 4.4-.1 7.6v10c-.2 1.7-.1 3.6-.1 5.6zM276.5 82.6v2.9c0 1 0 1.9.1 2.9.1 2.2.1 4.4.2 6.6.2.1.4.2.5.3-.1-2.2-.1-4.5-.2-6.7 0-1 0-2-.1-2.9V67.2c0-3.2.1-5.8.1-7.5-.2.1-.4.3-.5.5v.3c0 1.7-.1 4.1-.1 7V82.6z"/><g><path class="st14" d="M276.4 59.9c-.2.4-.5.9-.9 1.4-.1.2-.2.5-.3.7l.8 1c.2.2.4.5.5.7.1.2.2.3.2.3.1-.2.2-.4.3-.7.4-.7.8-1.2 1-1.6l-1.2-1.5c0-.1-.2-.2-.4-.3z"/><path class="st15" d="M276.8 64.3c-.1 0-.1 0-.2-.1l-.2-.3c-.1-.2-.3-.4-.5-.7l-.8-1c0-.1-.1-.1 0-.2.1-.3.2-.5.3-.7.2-.3.4-.6.5-.9l.3-.6c.1-.1.2-.1.3-.1l.6.3 1.2 1.5c.1.1.1.2 0 .2-.2.3-.4.6-.6 1-.1.2-.3.4-.4.6l-.3.6c0 .3 0 .3-.2.4.1 0 .1 0 0 0zm-1.3-2.3.7.9c.3.3.4.5.5.7.1-.1.1-.2.2-.4s.3-.4.4-.6c.2-.3.4-.6.5-.9l-1.1-1.4c-.1-.1-.2-.1-.3-.2-.1.1-.2.3-.2.4-.2.3-.3.5-.5.8 0 .3-.1.5-.2.7z"/><path class="st14" d="M275.9 59.8c-.3 0-.6.2-.8.3-.2.4-.3 1-.2 1.5l.3.3c.1-.2.2-.4.3-.7.3-.6.6-1 .9-1.4h-.5z"/><path class="st15" d="M275.3 62.2c-.1 0-.1 0-.2-.1l-.3-.3v-.1c-.2-.6-.1-1.2.2-1.7l.1-.1c.2-.2.5-.3.9-.4.2 0 .4 0 .6.1.1 0 .1.1.1.1v.2l-.3.6c-.2.3-.3.5-.5.8l-.3.6c-.1.3-.2.3-.3.3zm0-1.9c-.2.4-.2.8-.1 1.3.1-.1.1-.2.2-.4.2-.3.4-.6.5-.9.1-.1.1-.2.2-.3h-.1c-.3.1-.5.2-.7.3z"/><path class="st14" d="M278.2 66.1s.1.1.2.3c.1.2.3.5.4.8.1.3.3.6.4.8l.2.4c.1-.2.3-.4.5-.6.5-.5 1-1 1.3-1.4l-.2-.4c-.1-.2-.3-.6-.5-.9-.4-.6-.7-1.2-.7-1.2-.3.4-.7.9-1.1 1.5-.2.3-.4.5-.5.7z"/><path class="st15" d="M279.4 68.6c-.1 0-.2-.1-.2-.1s-.1-.1-.2-.4l-.4-.8c-.1-.1-.1-.2-.2-.3-.1-.2-.2-.3-.2-.5l-.2-.3V66c.1-.2.2-.4.4-.7.1-.2.2-.3.4-.5.3-.4.6-.7.8-1 0-.1.1-.1.2-.1s.1 0 .2.1l.7 1.2.3.6c0 .1.1.2.1.3l.2.4v.2c-.2.3-.6.6-.9 1l-.4.4c-.2.2-.3.3-.4.5 0 .1-.1.2-.2.2zm-.9-2.5.1.2c.1.1.2.3.3.5 0 .1.1.2.2.3l.4.8.3-.3.4-.4.8-.8-.1-.3c0-.1-.1-.2-.1-.3l-.3-.6-.6-.9c-.2.2-.4.5-.6.8-.1.1-.2.3-.4.5s-.3.3-.4.5z"/><g><path class="st14" d="M276.8 64s.1.1.2.3c.1.2.3.4.5.7.3.5.7 1.1.7 1.1.1-.2.2-.4.4-.6.5-.6.9-1.1 1.1-1.5 0 0-.1-.1-.2-.4-.1-.2-.4-.5-.5-.8-.2-.3-.4-.5-.6-.8-.1-.2-.3-.3-.3-.3-.2.4-.6 1-1 1.6-.1.3-.2.5-.3.7z"/><path class="st15" d="M278.2 66.3c-.1 0-.1 0-.2-.1l-.7-1.1c-.1-.2-.2-.3-.3-.5-.1-.1-.1-.2-.2-.2l-.2-.3c0-.1-.1-.1 0-.2.1-.2.2-.5.4-.7.1-.2.3-.4.4-.6.2-.4.5-.7.6-1 0-.1.1-.1.2-.1s.1 0 .4.4l.8 1c.1.2.3.3.3.5l.2.4v.2c-.2.3-.5.7-.8 1.1-.1.1-.2.3-.4.5s-.3.4-.4.6c.1.1 0 .1-.1.1zm-1.1-2.3.2.2.2.2c.1.2.2.3.4.5l.5.7c.1-.1.1-.2.2-.3.1-.2.2-.3.4-.5.3-.3.5-.7.7-.9l-.2-.2c-.1-.1-.2-.3-.3-.5l-.8-1-.1-.1c-.1.2-.3.5-.5.7-.1.2-.3.4-.4.6-.1.3-.2.4-.3.6z"/></g><g><path class="st14" d="M281.9 67.8c0-.1-.1-.1-.1-.2-.1-.3-.3-.6-.4-.9l-.2-.4c-.3.4-.8.8-1.3 1.4-.2.2-.3.4-.5.6 0 0 0 .1.1.3.8.5 2.1.1 2.4-.8z"/><path class="st15" d="M280.3 69c-.3 0-.6-.1-.9-.2l-.1-.1-.1-.3v-.2c.1-.2.3-.4.5-.6l.4-.4c.3-.4.7-.7.9-1 0-.1.1-.1.2-.1s.1.1.2.1l.3.5c.1.2.2.5.3.7l.1.2v.1c-.2.9-1.1 1.3-1.8 1.3zm-.6-.5c.2.1.4.1.6.1.5 0 1.1-.3 1.3-.8v-.1c-.1-.2-.2-.5-.3-.7l-.1-.2c-.2.2-.4.5-.7.7l-.4.4c-.2.2-.3.3-.4.6z"/></g><path class="st14" d="M281.4 66.8c-.3-.5-.5-1.1-.8-1.6-.3-.5-.6-1-.9-1.4-.3-.5-.6-.9-.9-1.3-.1-.2-.3-.4-.4-.6-.1-.2-.3-.4-.4-.5-.4-.5-.7-.9-1-1.2-.3-.2-.7-.4-1-.4-.3 0-.5.1-.6.2.3.4.8 1 1.4 1.8.6.7 1.2 1.5 1.8 2.4.3.5.6.9.9 1.4.3.5.5 1 .8 1.5.3.5.5 1 .7 1.5.5-.1.8-.5 1-.9-.3-.2-.4-.6-.6-.9zM279.7 67.5c-.3-.5-.5-1-.8-1.5-.3-.5-.6-.9-.9-1.4-.6-.9-1.2-1.7-1.7-2.3-.6-.7-1-1.3-1.3-1.7-.1.3-.1.7 0 1 .3.3.6.7 1 1.2 1 1.3 2.3 2.9 3.1 4.8.1.2.2.5.3.7 0 .1 0 .1.1.2.2.1.5.2.7.2-.1-.3-.3-.8-.5-1.2z"/></g><g><path class="st14" d="m275 65.1-.2.4-.3.9c-.1.3-.2.7-.3.9-.1.3-.1.4-.1.4.2-.1.4-.2.7-.2.8-.1 1.4-.1 1.9-.2l.4-1.2c.2-.6.5-1.1.5-1.1-.5 0-1.1-.1-1.9-.1-.2.1-.5.2-.7.2z"/><path class="st15" d="M274.1 68s-.1 0-.1-.1c-.1-.1-.1-.1-.1-.2l.1-.4c0-.2.1-.4.2-.6l.4-1.3c.2-.5.2-.6.4-.6.2-.1.5-.1.7-.1h.1c.5 0 .9.1 1.3.1h.6c.1 0 .1 0 .2.1v.2l-.5 1.1c-.2.6-.4 1.1-.4 1.1 0 .1-.1.1-.2.2h-.6c-.4 0-.8 0-1.3.1-.3.3-.5.3-.8.4.1 0 .1 0 0 0zm1-2.7c0 .1-.1.2-.1.3l-.4 1.3c-.1.2-.1.4-.2.6.1 0 .3-.1.4-.1.5-.1.9-.1 1.3-.1h.4c.1-.2.2-.6.3-1l.4-.9h-.3c-.4 0-.8-.1-1.3-.1h-.1c0-.1-.2 0-.4 0z"/><path class="st14" d="m282.4 59.5.1-.1c0-.4-.2-.8-.8-1-.5-.1-.9-.2-1.4-.1.1 0 .2.1.4.2.7.4 1.2.8 1.7 1-.1.1 0 .1 0 0z"/><path class="st15" d="M282.3 59.8h-.1c-.2-.1-.3-.2-.5-.3-.3-.2-.7-.5-1.1-.7-.1-.1-.2-.1-.3-.2-.1 0-.1-.1-.1-.2s.1-.2.2-.2c.4-.1.9-.1 1.5.1.7.2 1 .6 1 1.2 0 .1 0 .1-.1.2l-.1.1-.1.1c-.2-.1-.2-.1-.3-.1zm-1.2-1.3c.3.2.6.4.8.5.1.1.2.2.4.2 0-.3-.2-.6-.6-.7-.2.1-.4.1-.6 0z"/><path class="st14" d="m278 60.2-.3.3c-.2.2-.4.5-.6.8-.2.3-.4.6-.6.8-.1.1-.1.2-.2.3 0 .1-.1.1-.1.1h.8c.8.1 1.4.3 1.9.5 0 0 .1-.1.2-.3.1-.2.3-.4.5-.7.2-.2.4-.5.6-.6l.3-.3c-.5-.2-1-.5-1.8-.8-.2 0-.5-.1-.7-.1z"/><path class="st15" d="M278.9 63.3s-.1 0 0 0c-.2 0-.4-.1-.6-.1-.4-.1-.8-.2-1.3-.3-.2 0-.5-.1-.7 0-.1 0-.2 0-.2-.1v-.2l.1-.1c0-.1.1-.2.2-.3l.6-.8c.2-.2.3-.5.5-.6l.4-.5c0-.1.1-.1.2-.1.3 0 .5.1.8.2.5.2.9.4 1.3.5.2.1.4.2.5.2.1 0 .1.1.1.2s0 .1-.1.2l-.3.3-.4.4c-.1.1-.1.2-.2.2-.1.1-.1.2-.2.2-.1.1-.2.3-.3.4l-.2.3c-.1-.1-.2 0-.2 0zm-2.3-1c.1 0 .3 0 .4.1.5.1.9.2 1.3.3.1 0 .3.1.4.1l.1-.2c.1-.1.2-.3.4-.5l.2-.2c.1-.1.1-.2.2-.2.1-.2.3-.3.4-.4-.1 0-.2-.1-.2-.1-.4-.2-.8-.4-1.2-.5-.2-.1-.4-.1-.6-.1l-.4.4c-.2.2-.3.4-.5.6l-.5.7c.1 0 .1 0 0 0z"/><g><path class="st14" d="M280.7 58.5c-.1-.1-.2-.1-.4-.2-.1 0-.2 0-.2.1-.3.1-.5.2-.7.4l-.4.4-.7.7-.3.3c.2 0 .5.1.7.2.7.3 1.3.6 1.8.8 0 0 .4-.4.9-.8l.3-.3c.1-.1.2-.2.3-.2.2-.1.3-.2.3-.2-.4-.4-.9-.8-1.6-1.2z"/><path class="st15" d="M280.5 61.4c-.1 0-.1 0 0 0l-.6-.3c-.4-.2-.8-.4-1.2-.5-.2-.1-.5-.1-.7-.2-.1 0-.2-.1-.2-.1v-.2l.3-.3.7-.7c.1-.2.3-.3.5-.4.3-.2.6-.3.8-.4.1 0 .1 0 .2-.1h.2c.1.1.3.1.4.2.4.3.8.5 1.1.7.2.1.3.2.5.3.1 0 .1.1.1.2s0 .1-.1.2l-.6.5-.3.3c-.4.3-.8.7-.9.8h-.2zm-2.1-1.3c.1 0 .3.1.4.1.5.2.9.4 1.3.5.1.1.3.1.4.2.2-.2.5-.5.8-.7l.3-.3.4-.3c-.1 0-.1-.1-.2-.2-.3-.2-.7-.5-1.1-.7-.1-.1-.2-.1-.3-.1h-.1c-.2.1-.4.2-.7.3-.1.1-.3.2-.4.4l-.8.8c0-.1 0 0 0 0z"/></g><g><path class="st14" d="M274.8 69c.8.2 1.4-.2 1.8-.7 0-.2.1-.3.1-.5.1-.2.1-.4.1-.4-.5 0-1.2.1-1.9.2-.3 0-.5.1-.7.2 0 0 0 .2-.1.5 0 .3.2.6.7.7z"/><path class="st15" d="M275.1 69.3h-.4c-.5-.1-.8-.4-.9-.9v-.1l.1-.5c0-.1.1-.1.1-.2.2-.1.5-.2.8-.2.5-.1.9-.1 1.3-.1h.6c.1 0 .1 0 .2.1 0 .1.1.1 0 .2l-.1.4c0 .1-.1.3-.1.5v.1c-.4.4-.9.7-1.6.7zm-.8-1c.1.3.3.5.6.5.6.1 1.1-.1 1.5-.6 0-.2.1-.3.1-.5v-.1h-.3c-.4 0-.8 0-1.3.1-.2 0-.4.1-.6.1v.5z"/></g><g><path class="st14" d="M276.3 62.6s-.3.6-.7 1.2c-.3.7-.6 1.3-.6 1.3.2-.1.5-.1.8-.1.8 0 1.4.1 1.9.1V65c0-.1.1-.2.1-.2.1-.2.3-.5.4-.7.1-.1.1-.3.2-.4.1-.1.2-.2.2-.3.1-.2.2-.3.2-.3-.5-.1-1.1-.3-1.9-.5-.2-.1-.4-.1-.6 0z"/><path class="st15" d="M277.6 65.4h-.6c-.4 0-.8-.1-1.3-.1h-.1c-.2 0-.4 0-.6.1-.1 0-.2 0-.2-.1-.1-.1-.1-.2 0-.2l.6-1.3.7-1.3c0-.1.1-.1.2-.1h.8c.5.1.9.2 1.3.3.2.1.4.1.5.1.1 0 .1.1.2.1v.2l-.3.4c0 .1-.1.1-.1.2l-.6 1.1c-.1.1-.1.2-.1.2v.1c-.2.2-.3.3-.4.3zm-1.9-.6c.6 0 1 .1 1.4.1h.4c0-.1.1-.1.1-.2l.6-1.1c.1-.1.1-.2.2-.2l.1-.2c-.1 0-.2 0-.2-.1-.4-.1-.8-.2-1.3-.3-.2 0-.4-.1-.6 0l-.6 1.1-.4.9h.3z"/></g><path class="st14" d="M281.8 58.5c-.6.4-1.3.9-1.9 1.5l-1.2 1.2c-.2.2-.4.4-.6.7l-.5.7c-.4.5-.6 1-.9 1.5-.2.2-.3.5-.4.8-.1.3-.2.5-.3.8-.4 1-.7 2-.9 2.9 0 .2-.1.4-.1.5.6 0 1.1-.3 1.4-.8.1-.3.1-.5.2-.8.2-.4.3-.9.5-1.3s.4-.9.6-1.4c.1-.2.3-.4.4-.7.1-.2.3-.5.4-.7 1.1-1.7 2.6-3.1 3.9-4 .2-.4 0-.8-.6-.9z"/><path class="st14" d="M280.1 58.4c-.2.1-.5.2-.7.3-1 .9-2 1.9-2.8 3.2-.7 1-1.2 2.1-1.7 3.1-.2.5-.4 1-.5 1.5-.1.2-.2.5-.2.7-.1.2-.1.5-.2.7 0 .1-.1.3-.1.4.1.3.2.5.5.7 0-.2.1-.4.1-.6.1-.4.2-.9.4-1.4.1-.2.2-.5.2-.8.1-.3.2-.5.3-.8.4-1 1-2.1 1.7-3.1l.5-.7c.2-.2.4-.5.6-.7.4-.5.8-.9 1.2-1.3l.6-.6c.2-.2.4-.4.6-.5.1-.1.2-.1.3-.2-.2 0-.5 0-.8.1z"/></g><g><path class="st15" d="M283.7 90.3c0-.1 0-.1 0 0-.1 0-.3.2-.4.2 0-.2 0-.3-.1-.5v-.1l.3-.3s0-.1 0 0c-.1.1-.2.2-.3.2v-.1l.2-.2s0-.1 0 0-.1.1-.2.1c0-.1-.1-.1-.1-.2.1-.1.2-.2.2-.3-.1.1-.1.2-.2.2 0-.1-.1-.1-.1-.1 0-.1 0-.1.1-.1v-.2h-.1v.1c0 .1 0 .1-.1.1l-.1-.1c0-.1.1-.2.1-.3h-.1c0 .1 0 .2-.1.3-.2 0-.3.1-.5.2-.4.3-1.2 1-1.8.9 0-.2-.1-.4-.3-.6-.3-.4-1-.4-1.4-.2-.2.1-.5.2-.7.4-.1 0-.2.1-.2 0-.5-.3-1-.4-1.6-.4-.4 0-1.2.3-1.4.7-.2.3 0 .6.2.9-1.3.2-2.7 1.5-3 2.8v.2c-.1.1-.2.3-.3.5 0 .1 0 0 .1 0 .1-.1.1-.3.2-.4v.1c0 .1-.1.1-.1.2-.1.1-.1.3-.1.4h.1c0-.2.1-.3.2-.5.1.2.2.3.4.5-.1.1-.2.2-.2.4h.1c0-.1.1-.2.2-.3l.2.2c-.1.1-.1.3-.2.4h.1c0-.1.1-.2.1-.3.1.1.2.1.3.2 0 .1-.1.2-.1.3h.1c0-.1.1-.2.1-.2h.1c-.1.1-.1.3-.1.4h.1v-.1c0-.1.1-.2.1-.2h.2v.3s.1 0 .1-.1v-.2s.1 0 .1-.1c.1-.1.1-.1.1-.2.2-.3.5-.6.7-.9-.1.4 0 .7.3 1 .3.4 1 .4 1.4.1.6-.4.9-1.1 1.3-1.6.6.7 1 1.7 1.9 2 1.4.4 1.3-1.8 1.1-2.4-.1-.2-.1-.3-.2-.5.5.1 1.3-.2 1.7-.4.5-.2.9-.5 1.1-.9.1.1.4 0 .5-.1 0 0 0-.1 0 0-.1.1-.3 0-.4.1 0-.1.1-.1.1-.2.2 0 .3-.1.4-.2 0-.1 0-.1 0 0-.1.1-.2.1-.3.1V91c-.1-.5.1-.6.2-.7z"/><path class="st14" d="M282.9 89.8v.1c-.1 0-.2-.1-.2-.1-.2 0-.3-.1-.5-.2-.1 0-.1-.1-.1-.1.4-.2.7-.2.8.3zM280.2 90.6c0 .4-.2.7-.4.9-.1-.5-.1-1.2.1-1.7.2.3.3.5.3.8z"/><path class="st14" d="M279.7 89.6c.1 0 .2.1.2.2-.3.5-.3 1.2-.2 1.8l-.1.1c-.3-.4-.6-.7-.9-1v-.5c0-.2 0-.3.1-.5 0-.1.1-.1.1-.2.3 0 .5 0 .8.1zM279.3 91.6c-.4-.2-.8-.4-1.3-.4-.4 0-.7 0-1.1.1-.4.1-.7 0-1.1.1-.2-.2-.4-.3-.7-.5l-.2-.2c.3-.6 1.8-.6 2.3-.5.4.1.7.2 1.1.4.4.3.7.7 1 1z"/><path class="st14" d="M278.5 89.6c.2-.1.3-.1.5-.1-.2.2-.2.4-.3.7v.4c-.2-.3-.5-.5-.8-.7.1-.1.4-.2.6-.3zM275.2 90c1-.5 1.6-.4 2.5.1.1.1.3.2.4.3-.5-.2-1-.3-1.6-.2-.4 0-1.3.1-1.5.6-.2-.3-.3-.6.2-.8zM274.3 91.4c.1 0 .5-.2.7-.3.2.1.4.3.5.4l.2.2c-.2.1-.5.7-.6.7-.2.2-.3.5-.4.7-.1-.3-.3-.5-.3-.8 0-.1-.1-.7-.1-.9zM272.7 94.7c-1.1-.6-.4-1.7.2-2.4-.1.4 0 .8.1 1.1.1.4.3.9.6 1.3-.2.3-.5.2-.9 0z"/><path class="st14" d="M274.5 93.8c-.2.1-.4.3-.6.5-.1.1-.1.2-.2.3v.1c-.2-.3-.3-.6-.4-1-.1-.4-.3-1-.2-1.4.3-.3.8-.6 1.2-.8 0 .7.1 1.3.4 1.8v.1c-.1.1-.2.2-.2.4zM275.4 95c-.7-.1-.8-.7-.7-1.3v-.2c.1.5.4 1.1.8 1.4-.1.2-.1.2-.1.1z"/><path class="st14" d="M275.7 95c-.6-.3-.9-1-1-1.6 0-.1 0-.1.1-.2.1-.3.3-.6.5-.9.1.9.5 1.6 1.3 2.1-.3.4-.5.6-.9.6z"/><path class="st14" d="M276.6 94.5c-.3-.3-.6-.5-.8-.8-.3-.4-.4-.8-.5-1.3.2-.2.3-.5.5-.7.2.2.4.4.5.6v.2c.1.2.1.4.2.6.1.2.3.6.5.8 0 .1-.2.3-.4.6zM277.2 93.6c-.2-.2-.4-.6-.6-.9-.1-.1-.1-.2-.2-.4.3.3.5.6.8.9l.1.1c0 .2 0 .3-.1.3zM279 95.1c-.3-.2-.7-.8-1-1.2.4.2.7.3 1.1.5.4.2.7.5 1 .7-.2.3-.6.3-1.1 0z"/><path class="st14" d="M280.2 95c-.2-.3-.6-.5-.8-.6-.5-.3-.9-.4-1.4-.6l-.9-1.2 1.5.3c.8.2 1.3.6 1.9 1-.1.4-.1.8-.3 1.1z"/><path class="st14" d="M280.2 93.3c.1.1.1.3.1.4-.8-.9-2.3-1.3-3.4-1.2-.3-.4-.6-.7-1-1 .7-.1 1.3-.2 2-.1.6 0 1.1.4 1.6.6.3.4.5.9.7 1.3zM280 92.4c-.1-.1-.2-.3-.3-.4l-.1-.1c.2-.1.4-.3.5-.5.1.3.3.5.5.8.1.1.3.2.5.3-.3-.1-.7 0-1.1-.1zM281.9 92.1c-.1.1-.3.1-.4.2-.3 0-.6-.2-.8-.4-.1-.1-.3-.2-.4-.4 0 0-.1-.3-.2-.3.2-.3.2-.6.2-.9.2.1.3 0 .5 0 .1.4.7.8 1 .9.2.1.8.2 1.1.1-.2.4-.6.6-1 .8z"/><path class="st14" d="M283.1 90.9c0 .1-.1.2-.1.3-.3.2-1-.1-1.3-.3-.2-.1-.3-.2-.5-.4l-.3-.3c.2-.1.3-.2.5-.2.2-.1.5-.3.7-.5 0 .1.1.1.1.2.1.1.3.1.4.2.1.1.3.1.4.1.1.3.1.6.1.9z"/><path class="st14" d="M283.7 90.3c0-.1 0-.1 0 0-.1 0-.3.2-.4.2 0-.2 0-.3-.1-.5v-.1l.3-.3s0-.1 0 0c-.1.1-.2.2-.3.2v-.1l.2-.2s0-.1 0 0-.1.1-.2.1c0-.1-.1-.1-.1-.2.1-.1.2-.2.2-.3-.1.1-.1.2-.2.2 0-.1-.1-.1-.1-.1 0-.1 0-.1.1-.1v-.2h-.1v.1c0 .1 0 .1-.1.1l-.1-.1c0-.1.1-.2.1-.3h-.1c0 .1 0 .2-.1.3-.2 0-.3.1-.5.2-.4.3-1.2 1-1.8.9 0-.2-.1-.4-.3-.6-.1-.1-.2-.2-.3-.2 0 .4-.2.7-.6.9-.4.2-1-.1-1.4-.3-.1 0-.1-.1-.1-.1-.3-.2-.7-.3-1.1-.3.7.3 1.4 1 1.8 1.6.3.5 1.4 2.2.8 2.8-.2.2-.6 0-.8-.2-.5-.6-.9-1.4-1.5-2-.5-.6-1.2-.7-1.8-1.1-.2-.2-.4-.3-.4-.5v.1c-.2.3 0 .6.2.9-.2 0-.5.1-.7.2.3 0 .6 0 .9.2.7.4-.4 1-.6 1.3-.4.4-.6.9-1 1.3-.2.2-.5.5-.8.4-.5-.1-.7-.4-.7-.8 0 .1-.1.2-.1.3v.2c-.1.1-.2.3-.3.5 0 .1 0 0 .1 0 .1-.1.1-.3.2-.4v.1c0 .1-.1.1-.1.2-.1.1-.1.3-.1.4h.1c0-.2.1-.3.2-.5.1.2.2.3.4.5-.1.1-.2.2-.2.4h.1c0-.1.1-.2.2-.3l.2.2c-.1.1-.1.3-.2.4h.1c0-.1.1-.2.1-.3.1.1.2.1.3.2 0 .1-.1.2-.1.3h.1c0-.1.1-.2.1-.2h.1c-.1.1-.1.3-.1.4h.1V96c0-.1.1-.2.1-.2h.2v.3s.1 0 .1-.1v-.2s.1 0 .1-.1c.1-.1.1-.1.1-.2.2-.3.5-.6.7-.9-.1.4 0 .7.3 1 .3.4 1 .4 1.4.1.6-.4.9-1.1 1.3-1.6.6.7 1 1.7 1.9 2 1.4.4 1.3-1.8 1.1-2.4-.1-.2-.1-.3-.2-.5.5.1 1.3-.2 1.7-.4.5-.2.9-.5 1.1-.9.1.1.4 0 .5-.1 0 0 0-.1 0 0-.1.1-.3 0-.4.1 0-.1.1-.1.1-.2.2 0 .3-.1.4-.2 0-.1 0-.1 0 0-.1.1-.2.1-.3.1v-.3c0-.8.2-.9.3-1zm-7.5 3.1c-.2.5-.3 1.2-.9 1.3-.6.2-.7-.6-.6-.9.1-.6.3-1.3.8-1.7.1-.1.1-.1.2 0 .2-.1.4.1.5.3.2.3.1.7 0 1zm6.4-2.7c-.2.3-.5.5-.7.7-.3.2-1 .6-1.4.5-.4-.1-.3-.5-.1-.8 0-.6.6-.8 1.1-1.1.2-.1.5-.3.8-.4h.2c.1 0 .3 0 .4.2.1.2-.2.7-.3.9z"/><g><path class="st16" d="M274.4 91.5c-.2.1-.5.2-.7.3-.3.2-.6.4-.8.6-.3.4-.6.8-.7 1.4 0 .1.1 0 .1 0 .2-.4.4-.8.7-1.1.4-.5.9-.8 1.4-1.2zM275.4 92.5c-.1.2-.3.3-.4.5-.1.2-.2.4-.2.7 0 .1.1 0 .2-.1.1-.2.1-.4.2-.5 0-.2.1-.4.2-.6zM277.2 91.5c-.5-.6-1.3-.8-2-1.2 0 0-.1 0 0 .1.6.4 1.2.7 1.7 1.1.6.5 1 1.1 1.4 1.7 0 0 .1 0 .1-.1-.3-.5-.7-1.1-1.2-1.6zM279.3 89.6c-.1-.1-.4 0-.5 0-.1 0-.6.3-.6.3.4-.1.7-.3 1.1-.2-.1 0 0-.1 0-.1zM282 89.9l-.6.3s-.1.2 0 .1c.1 0 .2-.1.3-.1 0-.1.2-.1.3-.3 0 .1 0 0 0 0z"/></g></g></g></g><text transform="matrix(.8869 0 0 1 58.353 122.42)" style="letter-spacing:1.1;font-size:29.0815px;font-family:'Desyrel';stroke:#000;stroke-width:2;stroke-miterlimit:10">PAGE NOT FOUND</text></svg>